<?xml version="1.0" encoding="UTF-8" standalone="no"?>
<svg width="148px" height="124px" viewBox="0 0 148 124" version="1.1" xmlns="http://www.w3.org/2000/svg" xmlns:xlink="http://www.w3.org/1999/xlink">
    <!-- Generator: Sketch 3.6.1 (26313) - http://www.bohemiancoding.com/sketch -->
    <title>ico-paid-post-3</title>
    <desc>Created with Sketch.</desc>
    <defs></defs>
    <g id="ico-frontpage" stroke="none" stroke-width="1" fill="none" fill-rule="evenodd">
        <g id="ico-paid-post-3">
            <g id="Group" transform="translate(7.000000, 13.000000)">
                <g id="Group-9" transform="translate(0.000000, 33.000000)">
                    <g id="ico-ipfs-copy">
                        <g id="ico-ipfs">
                            <g id="Group-4">
                                <path d="M67.305603,65.9829588 C102.651827,60.1853871 132.751418,45.7032684 134.535798,33.6303135 C136.319785,21.5600126 106.228358,7.07651465 67.305603,1.27766829 C28.3914044,-4.51990336 -1.7089713,9.95966592 0.0754082664,33.6303135 C1.85939558,57.2957577 31.9516074,71.7818051 67.305603,65.9829588 Z" id="Fill-1-Copy-6" fill="#EEF1F6"></path>
                                <path d="M63.5000022,45.9942285 C76.8915884,43.7977087 88.2953885,38.3108838 88.9714345,33.7368163 C89.6473319,29.1637542 78.2466248,23.6764068 63.5000022,21.479404 C48.7566212,19.2828842 37.3525239,24.7687432 38.0285698,33.7368163 C38.7044672,42.7029179 50.1054715,48.1912313 63.5000022,45.9942285 Z" id="Fill-1-Copy-8" fill="#CFD7E6"></path>
                            </g>
                        </g>
                    </g>
                </g>
                <g id="Group-7" transform="translate(47.000000, 0.000000)">
                    <g id="ico-paid-post-2-copy" transform="translate(0.000000, 11.000000)">
                        <path d="M0,43 L62,43 L62,13 L0,13 L0,43 Z" id="Fill-2" fill="#FFFFFF"></path>
                        <path d="M0,43 L0,13 L62,13 L62,43" id="Stroke-3" stroke="#4D6892" stroke-width="2"></path>
                        <path d="M36,43 L26,43" id="Stroke-4" stroke="#4D6892" stroke-width="2"></path>
                        <path d="M4,23 L10,23 L10,17 L4,17 L4,23 Z" id="Fill-5" fill="#4D6892"></path>
                        <path d="M12,23 L18,23 L18,17 L12,17 L12,23 Z" id="Fill-6" fill="#4BA2F2"></path>
                        <path d="M20,23 L26,23 L26,17 L20,17 L20,23 Z" id="Fill-7" fill="#4BA2F2"></path>
                        <path d="M28,23 L34,23 L34,17 L28,17 L28,23 Z" id="Fill-8" fill="#4BA2F2"></path>
                        <path d="M36,23 L42,23 L42,17 L36,17 L36,23 Z" id="Fill-9" fill="#4BA2F2"></path>
                        <path d="M44,23 L50,23 L50,17 L44,17 L44,23 Z" id="Fill-10" fill="#4BA2F2"></path>
                        <path d="M52,23 L58,23 L58,17 L52,17 L52,23 Z" id="Fill-11" fill="#4BA2F2"></path>
                        <path d="M4,31 L10,31 L10,25 L4,25 L4,31 Z" id="Fill-12" fill="#4BA2F2"></path>
                        <path d="M12,31 L18,31 L18,25 L12,25 L12,31 Z" id="Fill-13" fill="#4BA2F2"></path>
                        <path d="M20,31 L26,31 L26,25 L20,25 L20,31 Z" id="Fill-14" fill="#4BA2F2"></path>
                        <path d="M28,31 L34,31 L34,25 L28,25 L28,31 Z" id="Fill-15" fill="#4BA2F2"></path>
                        <path d="M36,31 L42,31 L42,25 L36,25 L36,31 Z" id="Fill-16" fill="#4BA2F2"></path>
                        <path d="M44,31 L50,31 L50,25 L44,25 L44,31 Z" id="Fill-17" fill="#4BA2F2"></path>
                        <path d="M52,31 L58,31 L58,25 L52,25 L52,31 Z" id="Fill-18" fill="#4BA2F2"></path>
                        <path d="M4,39 L10,39 L10,33 L4,33 L4,39 Z" id="Fill-19" fill="#4BA2F2"></path>
                        <path d="M12,39 L18,39 L18,33 L12,33 L12,39 Z" id="Fill-20" fill="#4BA2F2"></path>
                        <path d="M20,39 L42,39 L42,33 L20,33 L20,39 Z" id="Fill-21" fill="#4BA2F2"></path>
                        <path d="M44,39 L50,39 L50,33 L44,33 L44,39 Z" id="Fill-22" fill="#4BA2F2"></path>
                        <path d="M52,39 L58,39 L58,33 L52,33 L52,39 Z" id="Fill-23" fill="#4BA2F2"></path>
                        <g id="Group-70" transform="translate(5.000000, 0.000000)">
                            <path d="M26,12 C26,10.343 27.344,9 29,9" id="Stroke-24" stroke="#4D6892" stroke-width="2"></path>
                            <path d="M29,9 L32,9" id="Stroke-26" stroke="#4D6892" stroke-width="2"></path>
                            <path d="M32,9 C33.656,9 35,7.657 35,6 C35,4.343 33.656,3 32,3" id="Stroke-28" stroke="#4D6892" stroke-width="2"></path>
                            <path d="M32,3 L20,3" id="Stroke-30" stroke="#4D6892" stroke-width="2"></path>
                            <path d="M20,3 C18.344,3 17,1.657 17,0" id="Stroke-32" stroke="#4D6892" stroke-width="2"></path>
                            <path d="M49,64 L49,62 L52,52 L52,41 C52,39.895 51.105,39 50,39 C48.896,39 48,39.895 48,41 L48,39 C48,37.895 47.105,37 46,37 C44.896,37 44,37.895 44,39 L44,37 C44,35.895 43.105,35 42,35 C40.896,35 40,35.895 40,37 L40,39 C40,37.895 39.105,37 38,37 C36.896,37 36,37.895 36,39 L36,46 L34,46 C32.896,46 32,46.895 32,48 L32,52 L34,56 L37,60 L37,64" id="Fill-34" fill="#FFC857"></path>
                            <path d="M40,39 L40,49" id="Fill-36" fill="#FFC857"></path>
                            <path d="M44,39 L44,49" id="Fill-38" fill="#FFC857"></path>
                            <path d="M48,41 L48,49" id="Fill-40" fill="#FFC857"></path>
                            <path d="M49,64 L49,62 L52,52 L52,41 C52,39.895 51.105,39 50,39 C48.896,39 48,39.895 48,41 L48,39 C48,37.895 47.105,37 46,37 C44.896,37 44,37.895 44,39 L44,37 C44,35.895 43.105,35 42,35 C40.896,35 40,35.895 40,37 L40,39 C40,37.895 39.105,37 38,37 C36.896,37 36,37.895 36,39 L36,50" id="Stroke-42" stroke="#4D6892" stroke-width="2"></path>
                            <path d="M40,39 L40,47" id="Stroke-44" stroke="#4D6892" stroke-width="2"></path>
                            <path d="M44,39 L44,47" id="Stroke-46" stroke="#4D6892" stroke-width="2"></path>
                            <path d="M48,41 L48,47" id="Stroke-48" stroke="#4D6892" stroke-width="2"></path>
                            <path d="M36,46 L34,46 C32.896,46 32,46.895 32,48 L32,52 L34,56 L37,60 L37,64" id="Stroke-50" stroke="#4D6892" stroke-width="2"></path>
                            <path d="M3,64 L3,62 L0,52 L0,41 C0,39.895 0.896,39 2,39 C3.105,39 4,39.895 4,41 L4,39 C4,37.895 4.896,37 6,37 C7.105,37 8,37.895 8,39 L8,37 C8,35.895 8.896,35 10,35 C11.105,35 12,35.895 12,37 L12,39 C12,37.895 12.896,37 14,37 C15.105,37 16,37.895 16,39 L16,46 L18,46 C19.105,46 20,46.895 20,48 L20,52 L18,56 L15,60 L15,64" id="Fill-52" fill="#FFC857"></path>
                            <path d="M12,39 L12,49" id="Fill-54" fill="#FFC857"></path>
                            <path d="M8,39 L8,49" id="Fill-56" fill="#FFC857"></path>
                            <path d="M4,41 L4,49" id="Fill-58" fill="#FFC857"></path>
                            <path d="M3,64 L3,62 L0,52 L0,41 C0,39.895 0.896,39 2,39 C3.105,39 4,39.895 4,41 L4,39 C4,37.895 4.896,37 6,37 C7.105,37 8,37.895 8,39 L8,37 C8,35.895 8.896,35 10,35 C11.105,35 12,35.895 12,37 L12,39 C12,37.895 12.896,37 14,37 C15.105,37 16,37.895 16,39 L16,50" id="Stroke-60" stroke="#4D6892" stroke-width="2"></path>
                            <path d="M12,39 L12,47" id="Stroke-62" stroke="#4D6892" stroke-width="2"></path>
                            <path d="M8,39 L8,47" id="Stroke-64" stroke="#4D6892" stroke-width="2"></path>
                            <path d="M4,41 L4,47" id="Stroke-66" stroke="#4D6892" stroke-width="2"></path>
                            <path d="M16,46 L18,46 C19.105,46 20,46.895 20,48 L20,52 L18,56 L15,60 L15,64" id="Stroke-68" stroke="#4D6892" stroke-width="2"></path>
                        </g>
                    </g>
                    <g id="Group-5" transform="translate(15.000000, 0.000000)">
                        <path d="M16,8 C16,12.419 12.418,16 8,16 C3.582,16 0,12.419 0,8 C0,3.581 3.582,0 8,0 C12.418,0 16,3.581 16,8" id="Fill-22" fill="#FBB326"></path>
                        <path d="M14,8 C14,11.313 11.313,14 8,14 C4.686,14 2,11.313 2,8 C2,4.686 4.686,2 8,2 C11.313,2 14,4.686 14,8" id="Fill-24" fill="#FFC857"></path>
                        <path d="M7,11 L9,11 L9,5 L7,5 L7,11 Z" id="Fill-26" fill="#F7931A"></path>
                    </g>
                </g>
            </g>
        </g>
    </g>
</svg>