<?xml version="1.0" encoding="UTF-8" standalone="no"?>
<svg width="428px" height="111px" viewBox="0 0 428 111" version="1.1" xmlns="http://www.w3.org/2000/svg" xmlns:xlink="http://www.w3.org/1999/xlink">
    <!-- Generator: Sketch 3.6.1 (26313) - http://www.bohemiancoding.com/sketch -->
    <title>img-wp</title>
    <desc>Created with Sketch.</desc>
    <defs></defs>
    <g id="Icons" stroke="none" stroke-width="1" fill="none" fill-rule="evenodd">
        <g id="icons-copy" transform="translate(-448.000000, -855.000000)">
            <g id="img-wp" transform="translate(448.000000, 854.000000)">
                <path d="M245.84083,53.4723127 L204.373702,53.4723127 L204.373702,109.915309 L245.84083,109.915309 C247.478042,109.915309 248.802768,108.586671 248.802768,106.944625 L248.802768,56.4429967 C248.802768,54.8009511 247.478042,53.4723127 245.84083,53.4723127 L245.84083,53.4723127 Z" id="Fill-1" fill="#CFD7E6"></path>
                <path d="M204.373702,95.0618893 L248.802768,95.0618893 L248.802768,68.3257329 L204.373702,68.3257329 L204.373702,95.0618893 Z" id="Fill-3" fill="#FFFFFF"></path>
                <path d="M245.84083,53.4723127 L204.373702,53.4723127 L204.373702,109.915309 L245.84083,109.915309 C247.478042,109.915309 248.802768,108.586671 248.802768,106.944625 L248.802768,56.4429967 C248.802768,54.8009511 247.478042,53.4723127 245.84083,53.4723127 L245.84083,53.4723127 Z" id="Stroke-5" stroke="#4D6892" stroke-width="1.11000001" stroke-linecap="round" stroke-linejoin="round"></path>
                <path d="M204.373702,68.3257329 L248.802768,68.3257329" id="Stroke-6" stroke="#4D6892" stroke-width="1.11000001" stroke-linecap="round" stroke-linejoin="round"></path>
                <path d="M204.373702,95.0618893 L248.802768,95.0618893" id="Stroke-7" stroke="#4D6892" stroke-width="1.11000001" stroke-linecap="round" stroke-linejoin="round"></path>
                <path d="M236.955017,111.400651 L239.916955,111.400651 L239.916955,51.9869707 L236.955017,51.9869707 L236.955017,111.400651 Z" id="Fill-8" fill="#4BA2F2"></path>
                <path d="M236.955017,111.400651 L239.916955,111.400651 L239.916955,51.9869707 L236.955017,51.9869707 L236.955017,111.400651 Z" id="Stroke-9" stroke="#4D6892" stroke-width="1.11000001" stroke-linecap="round" stroke-linejoin="round"></path>
                <path d="M207.33564,53.4723127 L207.33564,109.915309" id="Stroke-10" stroke="#4D6892" stroke-width="1.11000001" stroke-linecap="round" stroke-linejoin="round"></path>
                <path d="M185.121107,95.6841733 L185.121107,67.7033003 C187.735388,66.557359 189.564014,63.9435283 189.564014,60.8989485 C189.564014,57.8543687 187.735388,55.2409094 185.121107,54.0945967 L185.121107,60.8989485 L179.197232,60.8989485 L179.197232,54.0945967 C176.582952,55.2409094 174.754325,57.8543687 174.754325,60.8989485 C174.754325,63.9435283 176.582952,66.557359 179.197232,67.7033003 L179.197232,95.6841733 C176.582952,96.8308573 174.754325,99.4439453 174.754325,102.488525 C174.754325,105.533105 176.582952,108.146936 179.197232,109.292877 L179.197232,102.488525 L185.121107,102.488525 L185.121107,109.292877 C187.735388,108.146936 189.564014,105.533105 189.564014,102.488525 C189.564014,99.4439453 187.735388,96.8308573 185.121107,95.6841733" id="Fill-11" fill="#4BA2F2"></path>
                <path d="M185.121107,95.6841733 L185.121107,67.7033003 C187.735388,66.557359 189.564014,63.9435283 189.564014,60.8989485 C189.564014,57.8543687 187.735388,55.2409094 185.121107,54.0945967 L185.121107,60.8989485 L179.197232,60.8989485 L179.197232,54.0945967 C176.582952,55.2409094 174.754325,57.8543687 174.754325,60.8989485 C174.754325,63.9435283 176.582952,66.557359 179.197232,67.7033003 L179.197232,95.6841733 C176.582952,96.8308573 174.754325,99.4439453 174.754325,102.488525 C174.754325,105.533105 176.582952,108.146936 179.197232,109.292877 L179.197232,102.488525 L185.121107,102.488525 L185.121107,109.292877 C187.735388,108.146936 189.564014,105.533105 189.564014,102.488525 C189.564014,99.4439453 187.735388,96.8308573 185.121107,95.6841733 L185.121107,95.6841733 Z" id="Stroke-12" stroke="#4D6892" stroke-width="1.11000001" stroke-linecap="round" stroke-linejoin="round"></path>
                <path d="M182.15917,95.0618893 L182.15917,68.3257329" id="Stroke-13" stroke="#4D6892" stroke-width="1.11000001" stroke-linecap="round" stroke-linejoin="round"></path>
                <path d="M337.6609,109.915309 L382.089965,109.915309 L382.089965,44.5602606 L337.6609,44.5602606 L337.6609,109.915309 Z" id="Fill-14" fill="#EEF1F6"></path>
                <path d="M337.6609,44.5602606 L382.089965,44.5602606 L382.089965,41.5895765 L337.6609,41.5895765 L337.6609,44.5602606 Z" id="Fill-15" fill="#CFD7E6"></path>
                <path d="M343.584775,74.267101 L349.508651,74.267101" id="Stroke-16" stroke="#4D6892" stroke-width="1.11000001" stroke-linecap="round" stroke-linejoin="round"></path>
                <path d="M352.470588,74.267101 L355.432526,74.267101" id="Stroke-17" stroke="#4D6892" stroke-width="1.11000001" stroke-linecap="round" stroke-linejoin="round"></path>
                <path d="M358.394464,74.267101 L364.318339,74.267101" id="Stroke-18" stroke="#4D6892" stroke-width="1.11000001" stroke-linecap="round" stroke-linejoin="round"></path>
                <path d="M367.280277,74.267101 L370.242215,74.267101" id="Stroke-19" stroke="#4D6892" stroke-width="1.11000001" stroke-linecap="round" stroke-linejoin="round"></path>
                <path d="M346.445489,77.237785 L373.204004,77.237785" id="Stroke-20" stroke="#FFC857" stroke-width="1.11000001" stroke-linecap="round" stroke-linejoin="round"></path>
                <path d="M349.508651,80.2084691 L355.432526,80.2084691" id="Stroke-21" stroke="#4D6892" stroke-width="1.11000001" stroke-linecap="round"></path>
                <path d="M358.394464,80.2084691 L361.356401,80.2084691" id="Stroke-22" stroke="#4D6892" stroke-width="1.11000001" stroke-linecap="round" stroke-linejoin="round"></path>
                <path d="M364.318339,80.2084691 L370.242215,80.2084691" id="Stroke-23" stroke="#4D6892" stroke-width="1.11000001" stroke-linecap="round" stroke-linejoin="round"></path>
                <path d="M373.204152,80.2084691 L376.16609,80.2084691" id="Stroke-24" stroke="#4D6892" stroke-width="1.11000001" stroke-linecap="round" stroke-linejoin="round"></path>
                <path d="M343.584775,62.3843648 L349.508651,62.3843648" id="Stroke-25" stroke="#4D6892" stroke-width="1.11000001" stroke-linecap="round" stroke-linejoin="round"></path>
                <path d="M352.470588,62.3843648 L355.432526,62.3843648" id="Stroke-26" stroke="#4D6892" stroke-width="1.11000001" stroke-linecap="round" stroke-linejoin="round"></path>
                <path d="M358.394464,62.3843648 L364.318339,62.3843648" id="Stroke-27" stroke="#4D6892" stroke-width="1.11000001" stroke-linecap="round"></path>
                <path d="M367.280277,62.3843648 L370.242215,62.3843648" id="Stroke-28" stroke="#4D6892" stroke-width="1.11000001" stroke-linecap="round" stroke-linejoin="round"></path>
                <path d="M346.445489,65.3550489 L373.204004,65.3550489" id="Stroke-29" stroke="#4D6892" stroke-width="1.11000001" stroke-linecap="round" stroke-linejoin="round"></path>
                <path d="M349.508651,68.3257329 L355.432526,68.3257329" id="Stroke-30" stroke="#4D6892" stroke-width="1.11000001" stroke-linecap="round" stroke-linejoin="round"></path>
                <path d="M358.394464,68.3257329 L361.356401,68.3257329" id="Stroke-31" stroke="#4D6892" stroke-width="1.11000001" stroke-linecap="round" stroke-linejoin="round"></path>
                <path d="M364.318339,68.3257329 L370.242215,68.3257329" id="Stroke-32" stroke="#4D6892" stroke-width="1.11000001" stroke-linecap="round" stroke-linejoin="round"></path>
                <path d="M373.204152,68.3257329 L376.16609,68.3257329" id="Stroke-33" stroke="#4D6892" stroke-width="1.11000001" stroke-linecap="round" stroke-linejoin="round"></path>
                <path d="M343.584775,50.5016287 L349.508651,50.5016287" id="Stroke-34" stroke="#4D6892" stroke-width="1.11000001" stroke-linecap="round" stroke-linejoin="round"></path>
                <path d="M352.470588,50.5016287 L355.432526,50.5016287" id="Stroke-35" stroke="#4D6892" stroke-width="1.11000001" stroke-linecap="round" stroke-linejoin="round"></path>
                <path d="M358.394464,50.5016287 L364.318339,50.5016287" id="Stroke-36" stroke="#4D6892" stroke-width="1.11000001" stroke-linecap="round" stroke-linejoin="round"></path>
                <path d="M367.280277,50.5016287 L370.242215,50.5016287" id="Stroke-37" stroke="#4D6892" stroke-width="1.11000001" stroke-linecap="round"></path>
                <path d="M346.445489,53.4723127 L373.204004,53.4723127" id="Stroke-38" stroke="#4BA2F2" stroke-width="1.11000001" stroke-linecap="round" stroke-linejoin="round"></path>
                <path d="M349.508651,56.4429967 L355.432526,56.4429967" id="Stroke-39" stroke="#4D6892" stroke-width="1.11000001" stroke-linecap="round" stroke-linejoin="round"></path>
                <path d="M358.394464,56.4429967 L361.356401,56.4429967" id="Stroke-40" stroke="#4D6892" stroke-width="1.11000001" stroke-linecap="round" stroke-linejoin="round"></path>
                <path d="M364.318339,56.4429967 L370.242215,56.4429967" id="Stroke-41" stroke="#4D6892" stroke-width="1.11000001" stroke-linecap="round" stroke-linejoin="round"></path>
                <path d="M373.204152,56.4429967 L376.16609,56.4429967" id="Stroke-42" stroke="#4D6892" stroke-width="1.11000001" stroke-linecap="round" stroke-linejoin="round"></path>
                <path d="M343.584775,98.0325733 L349.508651,98.0325733" id="Stroke-43" stroke="#4D6892" stroke-width="1.11000001" stroke-linecap="round" stroke-linejoin="round"></path>
                <path d="M352.470588,98.0325733 L355.432526,98.0325733" id="Stroke-44" stroke="#4D6892" stroke-width="1.11000001" stroke-linecap="round" stroke-linejoin="round"></path>
                <path d="M358.394464,98.0325733 L364.318339,98.0325733" id="Stroke-45" stroke="#4D6892" stroke-width="1.11000001" stroke-linecap="round"></path>
                <path d="M367.280277,98.0325733 L370.242215,98.0325733" id="Stroke-46" stroke="#4D6892" stroke-width="1.11000001" stroke-linecap="round" stroke-linejoin="round"></path>
                <path d="M346.445489,101.003257 L373.204004,101.003257" id="Stroke-47" stroke="#4D6892" stroke-width="1.11000001" stroke-linecap="round" stroke-linejoin="round"></path>
                <path d="M349.508651,103.973941 L355.432526,103.973941" id="Stroke-48" stroke="#4D6892" stroke-width="1.11000001" stroke-linecap="round" stroke-linejoin="round"></path>
                <path d="M358.394464,103.973941 L361.356401,103.973941" id="Stroke-49" stroke="#4D6892" stroke-width="1.11000001" stroke-linecap="round" stroke-linejoin="round"></path>
                <path d="M364.318339,103.973941 L370.242215,103.973941" id="Stroke-50" stroke="#4D6892" stroke-width="1.11000001" stroke-linecap="round" stroke-linejoin="round"></path>
                <path d="M373.204152,103.973941 L376.16609,103.973941" id="Stroke-51" stroke="#4D6892" stroke-width="1.11000001" stroke-linecap="round" stroke-linejoin="round"></path>
                <path d="M343.584775,86.1498371 L349.508651,86.1498371" id="Stroke-52" stroke="#4D6892" stroke-width="1.11000001" stroke-linecap="round" stroke-linejoin="round"></path>
                <path d="M352.470588,86.1498371 L355.432526,86.1498371" id="Stroke-53" stroke="#4D6892" stroke-width="1.11000001" stroke-linecap="round" stroke-linejoin="round"></path>
                <path d="M358.394464,86.1498371 L364.318339,86.1498371" id="Stroke-54" stroke="#4D6892" stroke-width="1.11000001" stroke-linecap="round" stroke-linejoin="round"></path>
                <path d="M367.280277,86.1498371 L370.242215,86.1498371" id="Stroke-55" stroke="#4D6892" stroke-width="1.11000001" stroke-linecap="round"></path>
                <path d="M346.445489,89.1205212 L373.204004,89.1205212" id="Stroke-56" stroke="#4D6892" stroke-width="1.11000001" stroke-linecap="round" stroke-linejoin="round"></path>
                <path d="M349.508651,92.0912052 L355.432526,92.0912052" id="Stroke-57" stroke="#4D6892" stroke-width="1.11000001" stroke-linecap="round" stroke-linejoin="round"></path>
                <path d="M358.394464,92.0912052 L361.356401,92.0912052" id="Stroke-58" stroke="#4D6892" stroke-width="1.11000001" stroke-linecap="round" stroke-linejoin="round"></path>
                <path d="M364.318339,92.0912052 L370.242215,92.0912052" id="Stroke-59" stroke="#4D6892" stroke-width="1.11000001" stroke-linecap="round" stroke-linejoin="round"></path>
                <path d="M373.204152,92.0912052 L376.16609,92.0912052" id="Stroke-60" stroke="#4D6892" stroke-width="1.11000001" stroke-linecap="round" stroke-linejoin="round"></path>
                <path d="M337.6609,109.915309 L382.089965,109.915309 L382.089965,41.5895765 L337.6609,41.5895765 L337.6609,109.915309 Z" id="Stroke-61" stroke="#4D6892" stroke-width="1.11000001" stroke-linecap="round" stroke-linejoin="round"></path>
                <path d="M382.089965,44.5602606 L337.6609,44.5602606" id="Stroke-62" stroke="#4D6892" stroke-width="1.11000001" stroke-linecap="round" stroke-linejoin="round"></path>
                <path d="M331.737024,53.4723127 L254.726644,53.4723127 C253.089433,53.4723127 251.764706,54.8009511 251.764706,56.4429967 L251.764706,103.973941 L254.726644,103.973941 L254.726644,56.4429967 L331.737024,56.4429967 L331.737024,103.973941 L334.698962,103.973941 L334.698962,56.4429967 C334.698962,54.8009511 333.374235,53.4723127 331.737024,53.4723127" id="Fill-63" fill="#CFD7E6"></path>
                <path d="M334.698962,103.973941 L334.698962,56.4429967 C334.698962,54.8009511 333.374235,53.4723127 331.737024,53.4723127 L254.726644,53.4723127 C253.089433,53.4723127 251.764706,54.8009511 251.764706,56.4429967 L251.764706,103.973941" id="Stroke-64" stroke="#4D6892" stroke-width="1.11000001" stroke-linecap="round" stroke-linejoin="round"></path>
                <path d="M254.726644,103.973941 L331.737024,103.973941 L331.737024,56.4429967 L254.726644,56.4429967 L254.726644,103.973941 Z" id="Fill-65" fill="#FFC857"></path>
                <g id="Group-68" transform="translate(242.878893, 103.973941)">
                    <path d="M5.92387543,5.94136808 C2.64945329,5.94136808 0,3.28409121 0,0 L100.705882,0 C100.705882,3.28409121 98.0564291,5.94136808 94.7820069,5.94136808" id="Fill-66" fill="#A7B8D1"></path>
                    <path d="M5.92387543,5.94136808 C2.64945329,5.94136808 0,3.28409121 0,0 L100.705882,0 C100.705882,3.28409121 98.0564291,5.94136808 94.7820069,5.94136808" id="Stroke-67" stroke="#4D6892" stroke-width="1.11000001" stroke-linecap="round" stroke-linejoin="round"></path>
                </g>
                <path d="M254.726644,56.4429967 L331.737024,56.4429967" id="Stroke-69" stroke="#4D6892" stroke-width="1.11000001" stroke-linecap="round" stroke-linejoin="round"></path>
                <path d="M331.737024,56.4429967 L331.737024,103.973941" id="Stroke-70" stroke="#4D6892" stroke-width="1.11000001" stroke-linecap="round" stroke-linejoin="round"></path>
                <path d="M337.6609,109.915309 L248.802768,109.915309" id="Stroke-71" stroke="#4D6892" stroke-width="1.11000001" stroke-linecap="round" stroke-linejoin="round"></path>
                <path d="M284.346021,106.944625 L302.117647,106.944625 L302.117647,103.973941 L284.346021,103.973941 L284.346021,106.944625 Z" id="Stroke-72" stroke="#4D6892" stroke-width="1.11000001" stroke-linecap="round" stroke-linejoin="round"></path>
                <path d="M254.726644,56.4429967 L254.726644,103.973941" id="Stroke-73" stroke="#4D6892" stroke-width="1.11000001" stroke-linecap="round" stroke-linejoin="round"></path>
                <path d="M290.269896,65.3550489 L285.82699,65.3550489 L285.086505,68.3257329 L291.010381,68.3257329 L290.269896,65.3550489 Z" id="Fill-74" fill="#CFD7E6"></path>
                <path d="M300.636678,65.3550489 L296.193772,65.3550489 L295.453287,68.3257329 L301.377163,68.3257329 L300.636678,65.3550489 Z" id="Fill-75" fill="#CFD7E6"></path>
                <path d="M284.346021,65.3550489 L284.346021,20.7947883 C284.346021,44.5602606 266.574394,44.5602606 266.574394,65.3550489 L284.346021,65.3550489 Z" id="Fill-76" fill="#FFFFFF"></path>
                <path d="M302.117647,20.7947883 L302.117647,65.3550489 L319.889273,65.3550489 C319.889273,44.5602606 302.117647,44.5602606 302.117647,20.7947883" id="Fill-77" fill="#FFFFFF"></path>
                <path d="M272.49827,65.3550489 L278.422145,65.3550489 L278.422145,62.3843648 L272.49827,62.3843648 L272.49827,65.3550489 Z" id="Fill-78" fill="#FBB326"></path>
                <path d="M308.041522,65.3550489 L313.965398,65.3550489 L313.965398,62.3843648 L308.041522,62.3843648 L308.041522,65.3550489 Z" id="Fill-79" fill="#FBB326"></path>
                <path d="M284.346021,65.3550489 L266.574394,65.3550489 C266.574394,44.5602606 284.346021,44.5602606 284.346021,20.7947883" id="Stroke-80" stroke="#4D6892" stroke-width="1.11000001" stroke-linecap="round" stroke-linejoin="round"></path>
                <path d="M272.49827,65.3550489 L278.422145,65.3550489 L278.422145,62.3843648 L272.49827,62.3843648 L272.49827,65.3550489 Z" id="Stroke-81" stroke="#4D6892" stroke-width="1.11000001" stroke-linecap="round" stroke-linejoin="round"></path>
                <path d="M302.117647,65.3550489 L319.889273,65.3550489 C319.889273,44.5602606 302.117647,44.5602606 302.117647,20.7947883" id="Stroke-82" stroke="#4D6892" stroke-width="1.11000001" stroke-linecap="round" stroke-linejoin="round"></path>
                <path d="M308.041522,65.3550489 L313.965398,65.3550489 L313.965398,62.3843648 L308.041522,62.3843648 L308.041522,65.3550489 Z" id="Stroke-83" stroke="#4D6892" stroke-width="1.11000001" stroke-linecap="round" stroke-linejoin="round"></path>
                <path d="M288.160552,5.94136808 C285.773601,10.0279153 284.345947,15.1842801 284.345947,20.7947883 L284.345947,65.3550489 L302.117573,65.3550489 L302.117573,20.7947883 C302.117573,15.1842801 300.690289,10.0279153 298.302967,5.94136808 L288.160552,5.94136808 Z" id="Fill-84" fill="#FFFFFF"></path>
                <path d="M293.231834,0 C291.273623,1.53101629 289.553848,3.55479479 288.160626,5.94136808 L298.303042,5.94136808 C296.90982,3.55479479 295.190045,1.53101629 293.231834,0" id="Fill-85" fill="#CFD7E6"></path>
                <path d="M293.231834,0 C287.92108,4.15301629 284.346021,11.9072443 284.346021,20.7947883 L284.346021,65.3550489 L302.117647,65.3550489 L302.117647,20.7947883 C302.117647,11.9072443 298.542588,4.15301629 293.231834,0 L293.231834,0 Z" id="Stroke-86" stroke="#4D6892" stroke-width="1.11000001" stroke-linecap="round" stroke-linejoin="round"></path>
                <path d="M288.159071,5.94136808 L298.304448,5.94136808" id="Stroke-87" stroke="#4D6892" stroke-width="1.11000001" stroke-linecap="round" stroke-linejoin="round"></path>
                <path d="M288.788927,16.3387622 C290.172893,15.3940847 291.665709,14.8534202 293.231834,14.8534202 C294.797958,14.8534202 296.290775,15.3940847 297.67474,16.3387622" id="Stroke-88" stroke="#4D6892" stroke-width="1.11000001" stroke-linecap="round" stroke-linejoin="round"></path>
                <path d="M284.346021,62.3843648 L302.117647,62.3843648" id="Stroke-89" stroke="#4D6892" stroke-width="1.11000001" stroke-linecap="round" stroke-linejoin="round"></path>
                <path d="M293.231834,68.3257329 L293.231834,56.4429967" id="Stroke-90" stroke="#4D6892" stroke-width="1.11000001" stroke-linecap="round" stroke-linejoin="round"></path>
                <path d="M290.269896,65.3550489 L285.82699,65.3550489 L285.086505,68.3257329 L291.010381,68.3257329 L290.269896,65.3550489 L290.269896,65.3550489 Z" id="Stroke-91" stroke="#4D6892" stroke-width="1.11000001" stroke-linecap="round" stroke-linejoin="round"></path>
                <path d="M300.636678,65.3550489 L296.193772,65.3550489 L295.453287,68.3257329 L301.377163,68.3257329 L300.636678,65.3550489 L300.636678,65.3550489 Z" id="Stroke-92" stroke="#4D6892" stroke-width="1.11000001" stroke-linecap="round" stroke-linejoin="round"></path>
                <path d="M293.231834,86.1498371 L293.231834,92.0912052" id="Stroke-93" stroke="#4D6892" stroke-width="1.11000001" stroke-linecap="round" stroke-linejoin="round"></path>
                <path d="M278.422145,92.0912052 C278.422145,95.3752964 281.071599,98.0325733 284.346021,98.0325733" id="Stroke-94" stroke="#4D6892" stroke-width="1.11000001" stroke-linecap="round" stroke-linejoin="round"></path>
                <path d="M278.422145,92.0912052 C278.422145,88.807114 281.071599,86.1498371 284.346021,86.1498371" id="Stroke-95" stroke="#4D6892" stroke-width="1.11000001" stroke-linecap="round" stroke-linejoin="round"></path>
                <path d="M290.269896,92.0912052 C290.269896,95.3752964 287.620443,98.0325733 284.346021,98.0325733" id="Stroke-96" stroke="#4D6892" stroke-width="1.11000001" stroke-linecap="round" stroke-linejoin="round"></path>
                <path d="M290.269896,89.1205212 L290.269896,80.2084691" id="Stroke-97" stroke="#4D6892" stroke-width="1.11000001" stroke-linecap="round" stroke-linejoin="round"></path>
                <path d="M290.269896,77.237785 L290.269896,74.267101" id="Stroke-98" stroke="#4D6892" stroke-width="1.11000001" stroke-linecap="round" stroke-linejoin="round"></path>
                <path d="M293.231834,83.1791531 L293.231834,77.237785" id="Stroke-99" stroke="#4D6892" stroke-width="1.11000001" stroke-linecap="round" stroke-linejoin="round"></path>
                <path d="M287.307958,77.237785 C287.307958,78.8783453 285.981751,80.2084691 284.346021,80.2084691 C282.710291,80.2084691 281.384083,78.8783453 281.384083,77.237785 C281.384083,75.5972248 282.710291,74.267101 284.346021,74.267101" id="Stroke-100" stroke="#4D6892" stroke-width="1.11000001" stroke-linecap="round" stroke-linejoin="round"></path>
                <path d="M287.307958,76.6183974 L287.307958,71.2964169" id="Stroke-101" stroke="#4D6892" stroke-width="1.11000001" stroke-linecap="round" stroke-linejoin="round"></path>
                <path d="M299.155709,80.2084691 C299.155709,81.8490293 300.481917,83.1791531 302.117647,83.1791531 C303.753377,83.1791531 305.079585,81.8490293 305.079585,80.2084691 C305.079585,78.5679088 303.753377,77.237785 302.117647,77.237785" id="Stroke-102" stroke="#4D6892" stroke-width="1.11000001" stroke-linecap="round" stroke-linejoin="round"></path>
                <path d="M299.155709,77.237785 L299.155709,71.2964169" id="Stroke-103" stroke="#4D6892" stroke-width="1.11000001" stroke-linecap="round" stroke-linejoin="round"></path>
                <path d="M278.422145,83.1791531 C278.422145,83.9994332 277.759042,84.6644951 276.941176,84.6644951 C276.123311,84.6644951 275.460208,83.9994332 275.460208,83.1791531 C275.460208,82.358873 276.123311,81.6938111 276.941176,81.6938111 C277.759042,81.6938111 278.422145,82.358873 278.422145,83.1791531 L278.422145,83.1791531 Z" id="Stroke-104" stroke="#4D6892" stroke-width="1.11000001" stroke-linecap="round" stroke-linejoin="round"></path>
                <path d="M296.193772,74.267101 L296.193772,80.2084691" id="Stroke-105" stroke="#4D6892" stroke-width="1.11000001" stroke-linecap="round" stroke-linejoin="round"></path>
                <path d="M302.117647,86.1498371 C305.389107,86.1498371 308.041522,88.8097134 308.041522,92.0912052 C308.041522,95.3726971 305.389107,98.0325733 302.117647,98.0325733 C298.846187,98.0325733 296.193772,95.3726971 296.193772,92.0912052" id="Stroke-106" stroke="#4D6892" stroke-width="1.11000001" stroke-linecap="round" stroke-linejoin="round"></path>
                <path d="M296.193772,92.0912052 L296.193772,83.1791531" id="Stroke-107" stroke="#4D6892" stroke-width="1.11000001" stroke-linecap="round" stroke-linejoin="round"></path>
                <path d="M299.155709,92.0912052 C299.155709,93.7332508 300.480436,95.0618893 302.117647,95.0618893" id="Stroke-108" stroke="#4D6892" stroke-width="1.11000001" stroke-linecap="round" stroke-linejoin="round"></path>
                <path d="M305.079585,92.0912052 C305.079585,93.7332508 303.754858,95.0618893 302.117647,95.0618893" id="Stroke-109" stroke="#4D6892" stroke-width="1.11000001" stroke-linecap="round" stroke-linejoin="round"></path>
                <path d="M305.079585,91.5958436 C305.079585,90.2274723 303.975522,89.1205212 302.61155,89.1205212" id="Stroke-110" stroke="#4D6892" stroke-width="1.11000001" stroke-linecap="round" stroke-linejoin="round"></path>
                <path d="M299.155709,89.1205212 L299.155709,86.1498371" id="Stroke-111" stroke="#4D6892" stroke-width="1.11000001" stroke-linecap="round" stroke-linejoin="round"></path>
                <path d="M299.155709,77.237785 L299.155709,80.2084691" id="Stroke-112" stroke="#4D6892" stroke-width="1.11000001" stroke-linecap="round" stroke-linejoin="round"></path>
                <path d="M311.743945,84.6644951 C311.743945,85.4847752 311.080841,86.1498371 310.262976,86.1498371 C309.445111,86.1498371 308.782007,85.4847752 308.782007,84.6644951 C308.782007,83.844215 309.445111,83.1791531 310.262976,83.1791531 C311.080841,83.1791531 311.743945,83.844215 311.743945,84.6644951 L311.743945,84.6644951 Z" id="Stroke-113" stroke="#4D6892" stroke-width="1.11000001" stroke-linecap="round" stroke-linejoin="round"></path>
                <path d="M296.934256,99.5179153 C296.934256,100.338195 296.271152,101.003257 295.453287,101.003257 C294.635422,101.003257 293.972318,100.338195 293.972318,99.5179153 C293.972318,98.6976352 294.635422,98.0325733 295.453287,98.0325733 C296.271152,98.0325733 296.934256,98.6976352 296.934256,99.5179153 L296.934256,99.5179153 Z" id="Stroke-114" stroke="#4D6892" stroke-width="1.11000001" stroke-linecap="round" stroke-linejoin="round"></path>
                <path d="M293.231834,74.267101 L293.231834,71.2964169" id="Stroke-115" stroke="#4D6892" stroke-width="1.11000001" stroke-linecap="round" stroke-linejoin="round"></path>
                <path id="Stroke-116" stroke="#4D6892" stroke-width="1.11000001" stroke-linecap="round" stroke-linejoin="round"></path>
                <path id="Stroke-117" stroke="#4D6892" stroke-width="1.11000001" stroke-linecap="round" stroke-linejoin="round"></path>
                <path id="Stroke-118" stroke="#4D6892" stroke-width="1.11000001" stroke-linecap="round" stroke-linejoin="round"></path>
                <path id="Stroke-119" stroke="#4D6892" stroke-width="1.11000001" stroke-linecap="round" stroke-linejoin="round"></path>
                <path id="Stroke-120" stroke="#4D6892" stroke-width="1.11000001" stroke-linecap="round" stroke-linejoin="round"></path>
                <path d="M293.231834,92.0912052 C293.231834,97.017342 289.257654,101.003257 284.346021,101.003257" id="Stroke-121" stroke="#4D6892" stroke-width="1.11000001" stroke-linecap="round" stroke-linejoin="round"></path>
                <path d="M281.384083,92.0912052 C281.384083,90.450645 282.710291,89.1205212 284.346021,89.1205212 C285.981751,89.1205212 287.307958,90.450645 287.307958,92.0912052 C287.307958,93.7317655 285.981751,95.0618893 284.346021,95.0618893" id="Stroke-122" stroke="#4D6892" stroke-width="1.11000001" stroke-linecap="round" stroke-linejoin="round"></path>
                <path d="M287.307958,83.1791531 L287.307958,86.1498371" id="Stroke-123" stroke="#4D6892" stroke-width="1.11000001" stroke-linecap="round" stroke-linejoin="round"></path>
                <path d="M316.927336,101.003257 C316.927336,97.7191661 314.277882,95.0618893 311.00346,95.0618893" id="Stroke-124" stroke="#4D6892" stroke-width="1.11000001" stroke-linecap="round" stroke-linejoin="round"></path>
                <path d="M322.851211,101.003257 C322.851211,99.3612117 321.526484,98.0325733 319.889273,98.0325733" id="Stroke-125" stroke="#4D6892" stroke-width="1.11000001" stroke-linecap="round" stroke-linejoin="round"></path>
                <path d="M269.536332,101.003257 C269.536332,97.7191661 272.185785,95.0618893 275.460208,95.0618893" id="Stroke-126" stroke="#4D6892" stroke-width="1.11000001" stroke-linecap="round" stroke-linejoin="round"></path>
                <path d="M263.612457,101.003257 C263.612457,99.3612117 264.937183,98.0325733 266.574394,98.0325733" id="Stroke-127" stroke="#4D6892" stroke-width="1.11000001" stroke-linecap="round" stroke-linejoin="round"></path>
                <path id="Stroke-128" stroke="#4D6892" stroke-width="1.11000001" stroke-linecap="round" stroke-linejoin="round"></path>
                <path id="Stroke-129" stroke="#4D6892" stroke-width="1.11000001" stroke-linecap="round" stroke-linejoin="round"></path>
                <path d="M272.49827,101.003257 C272.49827,99.3612117 273.822997,98.0325733 275.460208,98.0325733" id="Stroke-130" stroke="#4D6892" stroke-width="1.11000001" stroke-linecap="round" stroke-linejoin="round"></path>
                <path d="M385.051903,109.915309 L393.937716,109.915309 L393.937716,50.5016287 L385.051903,50.5016287 L385.051903,109.915309 Z" id="Fill-131" fill="#FFC857"></path>
                <path d="M385.051903,109.915309 L393.937716,109.915309 L393.937716,50.5016287 L385.051903,50.5016287 L385.051903,109.915309 Z" id="Stroke-132" stroke="#4D6892" stroke-width="1.11000001" stroke-linecap="round" stroke-linejoin="round"></path>
                <path d="M390.975779,50.5016287 L390.975779,109.915309" id="Stroke-133" stroke="#4D6892" stroke-width="1.11000001" stroke-linecap="round" stroke-linejoin="round"></path>
                <path d="M385.051903,106.944625 L386.532872,106.944625" id="Stroke-134" stroke="#4D6892" stroke-width="1.11000001" stroke-linecap="round" stroke-linejoin="round"></path>
                <path d="M385.051903,103.973941 L386.532872,103.973941" id="Stroke-135" stroke="#4D6892" stroke-width="1.11000001" stroke-linecap="round" stroke-linejoin="round"></path>
                <path d="M385.051903,101.003257 L386.532872,101.003257" id="Stroke-136" stroke="#4D6892" stroke-width="1.11000001" stroke-linecap="round" stroke-linejoin="round"></path>
                <path d="M385.051903,98.0325733 L386.532872,98.0325733" id="Stroke-137" stroke="#4D6892" stroke-width="1.11000001" stroke-linecap="round" stroke-linejoin="round"></path>
                <path d="M385.051903,95.0618893 L386.532872,95.0618893" id="Stroke-138" stroke="#4D6892" stroke-width="1.11000001" stroke-linecap="round" stroke-linejoin="round"></path>
                <path d="M385.051903,92.0912052 L386.532872,92.0912052" id="Stroke-139" stroke="#4D6892" stroke-width="1.11000001" stroke-linecap="round" stroke-linejoin="round"></path>
                <path d="M385.051903,89.1205212 L386.532872,89.1205212" id="Stroke-140" stroke="#4D6892" stroke-width="1.11000001" stroke-linecap="round" stroke-linejoin="round"></path>
                <path d="M385.051903,86.1498371 L386.532872,86.1498371" id="Stroke-141" stroke="#4D6892" stroke-width="1.11000001" stroke-linecap="round" stroke-linejoin="round"></path>
                <path d="M385.051903,83.1791531 L386.532872,83.1791531" id="Stroke-142" stroke="#4D6892" stroke-width="1.11000001" stroke-linecap="round" stroke-linejoin="round"></path>
                <path d="M385.051903,80.2084691 L386.532872,80.2084691" id="Stroke-143" stroke="#4D6892" stroke-width="1.11000001" stroke-linecap="round" stroke-linejoin="round"></path>
                <path d="M385.051903,77.237785 L386.532872,77.237785" id="Stroke-144" stroke="#4D6892" stroke-width="1.11000001" stroke-linecap="round" stroke-linejoin="round"></path>
                <path d="M385.051903,74.267101 L386.532872,74.267101" id="Stroke-145" stroke="#4D6892" stroke-width="1.11000001" stroke-linecap="round" stroke-linejoin="round"></path>
                <path d="M385.051903,71.2964169 L386.532872,71.2964169" id="Stroke-146" stroke="#4D6892" stroke-width="1.11000001" stroke-linecap="round" stroke-linejoin="round"></path>
                <path d="M385.051903,68.3257329 L386.532872,68.3257329" id="Stroke-147" stroke="#4D6892" stroke-width="1.11000001" stroke-linecap="round" stroke-linejoin="round"></path>
                <path d="M385.051903,65.3550489 L386.532872,65.3550489" id="Stroke-148" stroke="#4D6892" stroke-width="1.11000001" stroke-linecap="round" stroke-linejoin="round"></path>
                <path d="M385.051903,62.3843648 L386.532872,62.3843648" id="Stroke-149" stroke="#4D6892" stroke-width="1.11000001" stroke-linecap="round" stroke-linejoin="round"></path>
                <path d="M385.051903,59.4136808 L386.532872,59.4136808" id="Stroke-150" stroke="#4D6892" stroke-width="1.11000001" stroke-linecap="round" stroke-linejoin="round"></path>
                <path d="M385.051903,56.4429967 L386.532872,56.4429967" id="Stroke-151" stroke="#4D6892" stroke-width="1.11000001" stroke-linecap="round" stroke-linejoin="round"></path>
                <path d="M385.051903,53.4723127 L386.532872,53.4723127" id="Stroke-152" stroke="#4D6892" stroke-width="1.11000001" stroke-linecap="round" stroke-linejoin="round"></path>
                <path d="M396.899654,106.944625 L402.823529,106.944625 L402.823529,62.3843648 L396.899654,62.3843648 L396.899654,106.944625 Z" id="Fill-153" fill="#FFC857"></path>
                <path d="M396.899654,109.915309 L402.823529,109.915309 L402.823529,62.3843648 L396.899654,62.3843648 L396.899654,109.915309 Z" id="Stroke-154" stroke="#4D6892" stroke-width="1.11000001" stroke-linecap="round" stroke-linejoin="round"></path>
                <path d="M399.861592,56.4429967 L396.899654,62.3843648 L402.823529,62.3843648 L399.861592,56.4429967 L399.861592,56.4429967 Z" id="Stroke-155" stroke="#4D6892" stroke-width="1.11000001" stroke-linecap="round" stroke-linejoin="round"></path>
                <path d="M399.861592,62.3843648 L399.861592,106.944625" id="Stroke-156" stroke="#4D6892" stroke-width="1.11000001" stroke-linecap="round" stroke-linejoin="round"></path>
                <path d="M396.899654,106.944625 L402.823529,106.944625" id="Stroke-157" stroke="#4D6892" stroke-width="1.11000001" stroke-linecap="round" stroke-linejoin="round"></path>
                <path d="M398.380623,59.4136808 L401.342561,59.4136808" id="Stroke-158" stroke="#4D6892" stroke-width="1.11000001" stroke-linecap="round" stroke-linejoin="round"></path>
                <path d="M91.8200692,106.944625 L97.7439446,106.944625 L97.7439446,65.3550489 L91.8200692,65.3550489 L91.8200692,106.944625 Z" id="Fill-159" fill="#FFC857"></path>
                <path d="M91.8200692,109.915309 L97.7439446,109.915309 L97.7439446,65.3550489 L91.8200692,65.3550489 L91.8200692,109.915309 Z" id="Stroke-160" stroke="#4D6892" stroke-width="1.11000001" stroke-linecap="round" stroke-linejoin="round"></path>
                <path d="M94.7820069,59.4136808 L91.8200692,65.3550489 L97.7439446,65.3550489 L94.7820069,59.4136808 L94.7820069,59.4136808 Z" id="Stroke-161" stroke="#4D6892" stroke-width="1.11000001" stroke-linecap="round" stroke-linejoin="round"></path>
                <path d="M94.7820069,65.3550489 L94.7820069,106.944625" id="Stroke-162" stroke="#4D6892" stroke-width="1.11000001" stroke-linecap="round" stroke-linejoin="round"></path>
                <path d="M91.8200692,106.944625 L97.7439446,106.944625" id="Stroke-163" stroke="#4D6892" stroke-width="1.11000001" stroke-linecap="round" stroke-linejoin="round"></path>
                <path d="M93.3010381,62.3843648 L96.2629758,62.3843648" id="Stroke-164" stroke="#4D6892" stroke-width="1.11000001" stroke-linecap="round" stroke-linejoin="round"></path>
                <path d="M228.069204,38.6185212 C228.069204,43.5409446 224.091322,47.5305733 219.183391,47.5305733 C214.27546,47.5305733 210.297578,43.5409446 210.297578,38.6185212 C210.297578,33.6960977 214.27546,29.7064691 219.183391,29.7064691 C224.091322,29.7064691 228.069204,33.6960977 228.069204,38.6185212" id="Fill-165" fill="#FBB326"></path>
                <path d="M219.183391,50.5012573 C212.63973,50.5012573 207.33564,45.1807622 207.33564,38.6185212 C207.33564,32.0562801 212.63973,26.7365277 219.183391,26.7365277 C225.727052,26.7365277 231.031142,32.0562801 231.031142,38.6185212" id="Stroke-166" stroke="#4D6892" stroke-width="1.11000001" stroke-linecap="round" stroke-linejoin="round"></path>
                <path d="M216.961938,35.6478371 L216.961938,41.5892052 L222.885813,38.6185212 L216.961938,35.6478371 Z" id="Fill-167" fill="#FFFFFF"></path>
                <path d="M216.961938,35.6478371 L216.961938,41.5892052 L222.885813,38.6185212 L216.961938,35.6478371 L216.961938,35.6478371 Z" id="Stroke-168" stroke="#4D6892" stroke-width="1.11000001" stroke-linecap="round" stroke-linejoin="round"></path>
                <path d="M228.069204,38.6185212 C228.069204,43.5409446 224.091322,47.5305733 219.183391,47.5305733 C214.27546,47.5305733 210.297578,43.5409446 210.297578,38.6185212 C210.297578,33.6960977 214.27546,29.7064691 219.183391,29.7064691 C224.091322,29.7064691 228.069204,33.6960977 228.069204,38.6185212 L228.069204,38.6185212 Z" id="Stroke-169" stroke="#4D6892" stroke-width="1.11000001" stroke-linecap="round" stroke-linejoin="round"></path>
                <path d="M25.916955,109.915309 L88.8581315,109.915309 L88.8581315,98.0325733 L25.916955,98.0325733 L25.916955,109.915309 Z" id="Fill-170" fill="#FFFFFF"></path>
                <path d="M77.0103806,109.915309 L88.8581315,109.915309 L88.8581315,98.0325733 L77.0103806,98.0325733 L77.0103806,109.915309 Z" id="Fill-171" fill="#FBB326"></path>
                <path d="M25.916955,109.915309 L88.8581315,109.915309 L88.8581315,98.0325733 L25.916955,98.0325733 L25.916955,109.915309 Z" id="Stroke-172" stroke="#4D6892" stroke-width="1.11000001" stroke-linecap="round" stroke-linejoin="round"></path>
                <path d="M33.3217993,103.973941 C33.3217993,104.794964 32.659436,105.459283 31.8408304,105.459283 C31.0222249,105.459283 30.3598616,104.794964 30.3598616,103.973941 C30.3598616,103.152919 31.0222249,102.488599 31.8408304,102.488599 C32.659436,102.488599 33.3217993,103.152919 33.3217993,103.973941 L33.3217993,103.973941 Z" id="Stroke-173" stroke="#4D6892" stroke-width="1.11000001" stroke-linecap="round" stroke-linejoin="round"></path>
                <path d="M39.2456747,103.973941 C39.2456747,104.794964 38.5833114,105.459283 37.7647059,105.459283 C36.9461003,105.459283 36.283737,104.794964 36.283737,103.973941 C36.283737,103.152919 36.9461003,102.488599 37.7647059,102.488599 C38.5833114,102.488599 39.2456747,103.152919 39.2456747,103.973941 L39.2456747,103.973941 Z" id="Stroke-174" stroke="#4D6892" stroke-width="1.11000001" stroke-linecap="round" stroke-linejoin="round"></path>
                <path d="M45.1695502,103.973941 C45.1695502,104.794964 44.5071869,105.459283 43.6885813,105.459283 C42.8699758,105.459283 42.2076125,104.794964 42.2076125,103.973941 C42.2076125,103.152919 42.8699758,102.488599 43.6885813,102.488599 C44.5071869,102.488599 45.1695502,103.152919 45.1695502,103.973941 L45.1695502,103.973941 Z" id="Stroke-175" stroke="#4D6892" stroke-width="1.11000001" stroke-linecap="round" stroke-linejoin="round"></path>
                <path d="M51.0934256,103.973941 C51.0934256,104.794964 50.4310623,105.459283 49.6124567,105.459283 C48.7938512,105.459283 48.1314879,104.794964 48.1314879,103.973941 C48.1314879,103.152919 48.7938512,102.488599 49.6124567,102.488599 C50.4310623,102.488599 51.0934256,103.152919 51.0934256,103.973941 L51.0934256,103.973941 Z" id="Stroke-176" stroke="#4D6892" stroke-width="1.11000001" stroke-linecap="round" stroke-linejoin="round"></path>
                <path d="M57.017301,103.973941 C57.017301,104.794964 56.3549377,105.459283 55.5363322,105.459283 C54.7177266,105.459283 54.0553633,104.794964 54.0553633,103.973941 C54.0553633,103.152919 54.7177266,102.488599 55.5363322,102.488599 C56.3549377,102.488599 57.017301,103.152919 57.017301,103.973941 L57.017301,103.973941 Z" id="Stroke-177" stroke="#4D6892" stroke-width="1.11000001" stroke-linecap="round" stroke-linejoin="round"></path>
                <path d="M77.0103806,109.915309 L77.0103806,98.0325733" id="Stroke-178" stroke="#4D6892" stroke-width="1.11000001" stroke-linecap="round" stroke-linejoin="round"></path>
                <path d="M165.868512,26.7361564 L165.868512,50.5016287 L191.044983,50.5016287 L196.968858,56.4429967 L196.968858,50.5016287 L204.373702,50.5016287 L204.373702,26.7361564 L165.868512,26.7361564 Z" id="Fill-179" fill="#FFFFFF"></path>
                <path d="M165.868512,26.7361564 L165.868512,50.5016287 L191.044983,50.5016287 L196.968858,56.4429967 L196.968858,50.5016287 L204.373702,50.5016287 L204.373702,26.7361564 L165.868512,26.7361564 L165.868512,26.7361564 Z" id="Stroke-180" stroke="#4D6892" stroke-width="1.11000001" stroke-linecap="round" stroke-linejoin="round"></path>
                <g id="Group-183" transform="translate(174.754325, 35.648208)">
                    <path id="Fill-181" fill="#FFFFFF" d="M0,0 L20.733564,0"></path>
                    <path d="M0,0 L20.733564,0" id="Stroke-182" stroke="#4D6892" stroke-width="1.11000001" stroke-linecap="round" stroke-linejoin="round"></path>
                </g>
                <g id="Group-186" transform="translate(174.754325, 38.618893)">
                    <path id="Fill-184" fill="#FFFFFF" d="M0,0 L20.733564,0"></path>
                    <path d="M0,0 L20.733564,0" id="Stroke-185" stroke="#4D6892" stroke-width="1.11000001" stroke-linecap="round" stroke-linejoin="round"></path>
                </g>
                <g id="Group-189" transform="translate(174.754325, 41.589577)">
                    <path id="Fill-187" fill="#FFFFFF" d="M0,0 L20.733564,0"></path>
                    <path d="M0,0 L20.733564,0" id="Stroke-188" stroke="#4D6892" stroke-width="1.11000001" stroke-linecap="round" stroke-linejoin="round"></path>
                </g>
                <path d="M337.6609,38.6188925 L358.394464,38.6188925 L358.394464,26.7361564 L337.6609,26.7361564 L337.6609,38.6188925 Z" id="Fill-190" fill="#4BA2F2"></path>
                <path d="M337.6609,38.6188925 L358.394464,38.6188925 L358.394464,26.7361564 L337.6609,26.7361564 L337.6609,38.6188925 Z" id="Stroke-191" stroke="#4D6892" stroke-width="1.11000001" stroke-linecap="round" stroke-linejoin="round"></path>
                <path d="M358.394464,35.6482085 L361.356401,35.6482085 L361.356401,29.7068404 L358.394464,29.7068404 L358.394464,35.6482085 Z" id="Stroke-192" stroke="#4D6892" stroke-width="1.11000001" stroke-linecap="round" stroke-linejoin="round"></path>
                <path d="M340.622837,35.6482085 L340.622837,29.7068404" id="Stroke-193" stroke="#4D6892" stroke-width="1.11000001" stroke-linecap="round" stroke-linejoin="round"></path>
                <path d="M343.584775,35.6482085 L343.584775,29.7068404" id="Stroke-194" stroke="#4D6892" stroke-width="1.11000001" stroke-linecap="round" stroke-linejoin="round"></path>
                <path d="M346.546713,35.6482085 L346.546713,29.7068404" id="Stroke-195" stroke="#4D6892" stroke-width="1.11000001" stroke-linecap="round" stroke-linejoin="round"></path>
                <path d="M100.705882,56.4429967 L162.906574,56.4429967 L162.906574,41.5895765 L100.705882,41.5895765 L100.705882,56.4429967 Z" id="Fill-196" fill="#FBB326"></path>
                <path d="M156.982699,47.5309446 C156.982699,49.1715049 155.656491,50.5016287 154.020761,50.5016287 C152.385031,50.5016287 151.058824,49.1715049 151.058824,47.5309446 C151.058824,45.8903844 152.385031,44.5602606 154.020761,44.5602606 C155.656491,44.5602606 156.982699,45.8903844 156.982699,47.5309446" id="Fill-197" fill="#FFFFFF"></path>
                <path d="M103.66782,53.4723127 L148.096886,53.4723127 L148.096886,44.5602606 L103.66782,44.5602606 L103.66782,53.4723127 Z" id="Fill-198" fill="#FFFFFF"></path>
                <path d="M100.705882,56.4429967 L162.906574,56.4429967 L162.906574,41.5895765 L100.705882,41.5895765 L100.705882,56.4429967 Z" id="Stroke-199" stroke="#4D6892" stroke-width="1.11000001" stroke-linecap="round" stroke-linejoin="round"></path>
                <path d="M103.66782,53.4723127 L148.096886,53.4723127 L148.096886,44.5602606 L103.66782,44.5602606 L103.66782,53.4723127 Z" id="Stroke-200" stroke="#4D6892" stroke-width="1.11000001" stroke-linecap="round" stroke-linejoin="round"></path>
                <path d="M156.982699,47.5309446 C156.982699,49.1715049 155.656491,50.5016287 154.020761,50.5016287 C152.385031,50.5016287 151.058824,49.1715049 151.058824,47.5309446 C151.058824,45.8903844 152.385031,44.5602606 154.020761,44.5602606 C155.656491,44.5602606 156.982699,45.8903844 156.982699,47.5309446 L156.982699,47.5309446 Z" id="Stroke-201" stroke="#4D6892" stroke-width="1.11000001" stroke-linecap="round" stroke-linejoin="round"></path>
                <path d="M159.944637,53.4723127 L156.108557,49.6249055" id="Stroke-202" stroke="#4D6892" stroke-width="1.11000001" stroke-linecap="round" stroke-linejoin="round"></path>
                <path d="M50.3529412,56.4429967 L65.1626298,56.4429967 L65.1626298,50.5016287 L50.3529412,50.5016287 L50.3529412,56.4429967 Z" id="Fill-203" fill="#CFD7E6"></path>
                <path d="M26.6574394,95.0618893 L88.8581315,95.0618893 L88.8581315,56.4429967 L26.6574394,56.4429967 L26.6574394,95.0618893 Z" id="Fill-204" fill="#CFD7E6"></path>
                <path d="M32.5813149,95.0618893 L38.5051903,95.0618893 L38.5051903,56.4429967 L32.5813149,56.4429967 L32.5813149,95.0618893 Z" id="Fill-205" fill="#4BA2F2"></path>
                <path d="M77.0103806,95.0618893 L82.9342561,95.0618893 L82.9342561,56.4429967 L77.0103806,56.4429967 L77.0103806,95.0618893 Z" id="Fill-206" fill="#4BA2F2"></path>
                <path d="M26.6574394,95.0618893 L88.8581315,95.0618893 L88.8581315,56.4429967 L26.6574394,56.4429967 L26.6574394,95.0618893 Z" id="Stroke-207" stroke="#4D6892" stroke-width="1.11000001" stroke-linecap="round" stroke-linejoin="round"></path>
                <path d="M50.3529412,56.4429967 L65.1626298,56.4429967 L65.1626298,50.5016287 L50.3529412,50.5016287 L50.3529412,56.4429967 Z" id="Stroke-208" stroke="#4D6892" stroke-width="1.11000001" stroke-linecap="round" stroke-linejoin="round"></path>
                <path d="M53.3148789,56.4429967 L62.200692,56.4429967 L62.200692,53.4723127 L53.3148789,53.4723127 L53.3148789,56.4429967 Z" id="Fill-209" fill="#FFFFFF"></path>
                <path d="M53.3148789,56.4429967 L62.200692,56.4429967 L62.200692,53.4723127 L53.3148789,53.4723127 L53.3148789,56.4429967 Z" id="Stroke-210" stroke="#4D6892" stroke-width="1.11000001" stroke-linecap="round" stroke-linejoin="round"></path>
                <path d="M77.0103806,56.4429967 L82.9342561,56.4429967 L82.9342561,53.4723127 L77.0103806,53.4723127 L77.0103806,56.4429967 Z" id="Stroke-211" stroke="#4D6892" stroke-width="1.11000001" stroke-linecap="round" stroke-linejoin="round"></path>
                <path d="M32.5813149,56.4429967 L38.5051903,56.4429967 L38.5051903,53.4723127 L32.5813149,53.4723127 L32.5813149,56.4429967 Z" id="Stroke-212" stroke="#4D6892" stroke-width="1.11000001" stroke-linecap="round" stroke-linejoin="round"></path>
                <path d="M32.5813149,56.4429967 L32.5813149,95.0618893" id="Stroke-213" stroke="#4D6892" stroke-width="1.11000001" stroke-linecap="round" stroke-linejoin="round"></path>
                <path d="M38.5051903,56.4429967 L38.5051903,95.0618893" id="Stroke-214" stroke="#4D6892" stroke-width="1.11000001" stroke-linecap="round" stroke-linejoin="round"></path>
                <path d="M77.0103806,56.4429967 L77.0103806,95.0618893" id="Stroke-215" stroke="#4D6892" stroke-width="1.11000001" stroke-linecap="round" stroke-linejoin="round"></path>
                <path d="M82.9342561,56.4429967 L82.9342561,95.0618893" id="Stroke-216" stroke="#4D6892" stroke-width="1.11000001" stroke-linecap="round" stroke-linejoin="round"></path>
                <path d="M410.228374,95.0618893 L405.785467,103.973941 L405.785467,106.944625 C405.785467,108.586671 407.110194,109.915309 408.747405,109.915309 L423.557093,109.915309 C425.194304,109.915309 426.519031,108.586671 426.519031,106.944625 L426.519031,103.973941 L422.076125,95.0618893 L410.228374,95.0618893 Z" id="Fill-217" fill="#4BA2F2"></path>
                <path d="M413.190311,89.1205212 L414.67128,89.1205212" id="Stroke-218" stroke="#4D6892" stroke-width="1.11000001" stroke-linecap="round" stroke-linejoin="round"></path>
                <path d="M413.190311,86.1498371 L414.67128,86.1498371" id="Stroke-219" stroke="#4D6892" stroke-width="1.11000001" stroke-linecap="round" stroke-linejoin="round"></path>
                <path d="M413.190311,83.1791531 L414.67128,83.1791531" id="Stroke-220" stroke="#4D6892" stroke-width="1.11000001" stroke-linecap="round" stroke-linejoin="round"></path>
                <path d="M413.190311,80.2084691 L414.67128,80.2084691" id="Stroke-221" stroke="#4D6892" stroke-width="1.11000001" stroke-linecap="round" stroke-linejoin="round"></path>
                <path d="M413.190311,77.237785 L414.67128,77.237785" id="Stroke-222" stroke="#4D6892" stroke-width="1.11000001" stroke-linecap="round" stroke-linejoin="round"></path>
                <path d="M413.190311,74.267101 L414.67128,74.267101" id="Stroke-223" stroke="#4D6892" stroke-width="1.11000001" stroke-linecap="round" stroke-linejoin="round"></path>
                <path d="M413.190311,71.2964169 L414.67128,71.2964169" id="Stroke-224" stroke="#4D6892" stroke-width="1.11000001" stroke-linecap="round" stroke-linejoin="round"></path>
                <path d="M417.633218,100.568126 C417.633218,101.388407 416.970114,102.053468 416.152249,102.053468 C415.334384,102.053468 414.67128,101.388407 414.67128,100.568126 C414.67128,99.7478463 415.334384,99.0827844 416.152249,99.0827844 C416.970114,99.0827844 417.633218,99.7478463 417.633218,100.568126 L417.633218,100.568126 Z" id="Stroke-225" stroke="#4D6892" stroke-width="1.11000001" stroke-linecap="round" stroke-linejoin="round"></path>
                <path d="M412.449827,102.983961 C412.449827,103.804241 411.786723,104.469303 410.968858,104.469303 C410.150993,104.469303 409.487889,103.804241 409.487889,102.983961 C409.487889,102.163681 410.150993,101.498619 410.968858,101.498619 C411.786723,101.498619 412.449827,102.163681 412.449827,102.983961 L412.449827,102.983961 Z" id="Stroke-226" stroke="#4D6892" stroke-width="1.11000001" stroke-linecap="round" stroke-linejoin="round"></path>
                <path d="M422.473061,103.973941 C422.473061,104.794221 421.809957,105.459283 420.992092,105.459283 C420.174227,105.459283 419.511124,104.794221 419.511124,103.973941 C419.511124,103.153661 420.174227,102.488599 420.992092,102.488599 C421.809957,102.488599 422.473061,103.153661 422.473061,103.973941 L422.473061,103.973941 Z" id="Stroke-227" stroke="#4D6892" stroke-width="1.11000001" stroke-linecap="round" stroke-linejoin="round"></path>
                <path id="Stroke-228" stroke="#4D6892" stroke-width="1.11000001" stroke-linecap="round" stroke-linejoin="round"></path>
                <path id="Stroke-229" stroke="#4D6892" stroke-width="1.11000001" stroke-linecap="round" stroke-linejoin="round"></path>
                <path id="Stroke-230" stroke="#4D6892" stroke-width="1.11000001" stroke-linecap="round" stroke-linejoin="round"></path>
                <path id="Stroke-231" stroke="#4D6892" stroke-width="1.11000001" stroke-linecap="round" stroke-linejoin="round"></path>
                <path id="Stroke-232" stroke="#4D6892" stroke-width="1.11000001" stroke-linecap="round" stroke-linejoin="round"></path>
                <path d="M411.709343,68.3257329 L420.595156,68.3257329" id="Stroke-233" stroke="#4D6892" stroke-width="1.11000001" stroke-linecap="round" stroke-linejoin="round"></path>
                <path d="M413.190311,89.1205212 L413.190311,68.3257329 L419.114187,68.3257329 L419.114187,89.1205212 L426.519031,103.973941 L426.519031,106.944625 C426.519031,108.586671 425.194304,109.915309 423.557093,109.915309 L408.747405,109.915309 C407.110194,109.915309 405.785467,108.586671 405.785467,106.944625 L405.785467,103.973941 L413.190311,89.1205212 L413.190311,89.1205212 Z" id="Stroke-234" stroke="#4D6892" stroke-width="1.11000001" stroke-linecap="round" stroke-linejoin="round"></path>
                <path d="M410.228374,95.0618893 L422.076125,95.0618893" id="Stroke-235" stroke="#4D6892" stroke-width="1.11000001" stroke-linecap="round" stroke-linejoin="round"></path>
                <path d="M1.59811349,92.0912052 C0.586611765,93.8383388 0.000148096886,95.8643453 0.000148096886,98.0325733 C0.000148096886,104.595186 5.30423806,109.915309 11.847899,109.915309 C18.3911896,109.915309 23.6956498,104.595186 23.6956498,98.0325733 C23.6956498,95.8643453 23.1091862,93.8383388 22.0973142,92.0912052 L1.59811349,92.0912052 Z" id="Fill-236" fill="#4BA2F2"></path>
                <path d="M14.8096886,86.5392938 L14.8096886,65.3549746 L8.88581315,65.3549746 L8.88581315,86.5392938 C3.7783218,87.8605055 0,92.4977433 0,98.032499 C0,104.595111 5.30408997,109.915235 11.8477509,109.915235 C18.3914118,109.915235 23.6955017,104.595111 23.6955017,98.032499 C23.6955017,92.4977433 19.9171799,87.8605055 14.8096886,86.5392938 L14.8096886,86.5392938 Z" id="Stroke-237" stroke="#4D6892" stroke-width="1.11000001" stroke-linecap="round" stroke-linejoin="round"></path>
                <path d="M7.40484429,65.3550489 L16.2906574,65.3550489" id="Stroke-238" stroke="#4D6892" stroke-width="1.11000001" stroke-linecap="round" stroke-linejoin="round"></path>
                <path d="M8.88581315,83.1791531 L10.366782,83.1791531" id="Stroke-239" stroke="#4D6892" stroke-width="1.11000001" stroke-linecap="round" stroke-linejoin="round"></path>
                <path d="M8.88581315,80.2084691 L10.366782,80.2084691" id="Stroke-240" stroke="#4D6892" stroke-width="1.11000001" stroke-linecap="round" stroke-linejoin="round"></path>
                <path d="M8.88581315,77.237785 L10.366782,77.237785" id="Stroke-241" stroke="#4D6892" stroke-width="1.11000001" stroke-linecap="round" stroke-linejoin="round"></path>
                <path d="M8.88581315,74.267101 L10.366782,74.267101" id="Stroke-242" stroke="#4D6892" stroke-width="1.11000001" stroke-linecap="round" stroke-linejoin="round"></path>
                <path d="M8.88581315,71.2964169 L10.366782,71.2964169" id="Stroke-243" stroke="#4D6892" stroke-width="1.11000001" stroke-linecap="round" stroke-linejoin="round"></path>
                <path d="M8.88581315,68.3257329 L10.366782,68.3257329" id="Stroke-244" stroke="#4D6892" stroke-width="1.11000001" stroke-linecap="round" stroke-linejoin="round"></path>
                <path d="M1.59811349,92.0912052 L22.0973142,92.0912052" id="Stroke-245" stroke="#4D6892" stroke-width="1.11000001" stroke-linecap="round" stroke-linejoin="round"></path>
                <path d="M8.88581315,99.5179153 C8.88581315,100.338195 8.22270934,101.003257 7.40484429,101.003257 C6.58697924,101.003257 5.92387543,100.338195 5.92387543,99.5179153 C5.92387543,98.6976352 6.58697924,98.0325733 7.40484429,98.0325733 C8.22270934,98.0325733 8.88581315,98.6976352 8.88581315,99.5179153 L8.88581315,99.5179153 Z" id="Stroke-246" stroke="#4D6892" stroke-width="1.11000001" stroke-linecap="round" stroke-linejoin="round"></path>
                <path d="M14.8096886,102.488599 C14.8096886,103.308879 14.1465848,103.973941 13.3287197,103.973941 C12.5108547,103.973941 11.8477509,103.308879 11.8477509,102.488599 C11.8477509,101.668319 12.5108547,101.003257 13.3287197,101.003257 C14.1465848,101.003257 14.8096886,101.668319 14.8096886,102.488599 L14.8096886,102.488599 Z" id="Stroke-247" stroke="#4D6892" stroke-width="1.11000001" stroke-linecap="round" stroke-linejoin="round"></path>
                <path d="M17.7716263,96.5472313 C17.7716263,97.3675114 17.1085225,98.0325733 16.2906574,98.0325733 C15.4727924,98.0325733 14.8096886,97.3675114 14.8096886,96.5472313 C14.8096886,95.7269511 15.4727924,95.0618893 16.2906574,95.0618893 C17.1085225,95.0618893 17.7716263,95.7269511 17.7716263,96.5472313 L17.7716263,96.5472313 Z" id="Stroke-248" stroke="#4D6892" stroke-width="1.11000001" stroke-linecap="round" stroke-linejoin="round"></path>
                <path id="Stroke-249" stroke="#4D6892" stroke-width="1.11000001" stroke-linecap="round" stroke-linejoin="round"></path>
                <path id="Stroke-250" stroke="#4D6892" stroke-width="1.11000001" stroke-linecap="round" stroke-linejoin="round"></path>
                <path id="Stroke-251" stroke="#4D6892" stroke-width="1.11000001" stroke-linecap="round" stroke-linejoin="round"></path>
                <path id="Stroke-252" stroke="#4D6892" stroke-width="1.11000001" stroke-linecap="round" stroke-linejoin="round"></path>
                <path id="Stroke-253" stroke="#4D6892" stroke-width="1.11000001" stroke-linecap="round" stroke-linejoin="round"></path>
                <path d="M89.6514125,31.8815296 L93.8403329,27.6802397 C91.4282048,25.2613603 88.0960249,23.7652495 84.4150768,23.7652495 L84.4150768,29.7066176 C86.4602948,29.7066176 88.3115059,30.5376664 89.6514125,31.8815296" id="Fill-254" fill="#CFD7E6"></path>
                <path d="M93.840481,27.6800912 L89.6515606,31.8813811 C90.9914671,33.2256156 91.8200692,35.0822932 91.8200692,37.1331792 C91.8200692,39.1840651 90.9914671,41.0407427 89.6515606,42.3849772 L93.840481,46.5862671 C96.2522388,44.166645 97.7439446,40.8246254 97.7439446,37.1331792 C97.7439446,33.4417329 96.2522388,30.0997134 93.840481,27.6800912" id="Fill-255" fill="#FBB326"></path>
                <path d="M84.4152249,44.5598893 C80.3251592,44.5598893 77.0103806,41.2353225 77.0103806,37.1331792 C77.0103806,33.0310358 80.3251592,29.7064691 84.4152249,29.7064691 L84.4152249,23.765101 C77.053699,23.765101 71.0865052,29.7499153 71.0865052,37.1331792 C71.0865052,44.516443 77.053699,50.5012573 84.4152249,50.5012573 C88.0958028,50.5012573 91.4279827,49.0051466 93.840481,46.5862671 L89.6515606,42.3849772 C88.3112837,43.7288404 86.4600727,44.5598893 84.4152249,44.5598893" id="Fill-256" fill="#FFC857"></path>
                <path d="M71.0865052,37.1331792 C71.0865052,44.516443 77.053699,50.5012573 84.4152249,50.5012573 C91.7767509,50.5012573 97.7439446,44.516443 97.7439446,37.1331792 C97.7439446,29.7499153 91.7767509,23.765101 84.4152249,23.765101 C77.053699,23.765101 71.0865052,29.7499153 71.0865052,37.1331792 L71.0865052,37.1331792 Z" id="Stroke-257" stroke="#4D6892" stroke-width="1.11000001" stroke-linecap="round" stroke-linejoin="round"></path>
                <path d="M91.8200692,37.1331792 C91.8200692,41.2353225 88.5052907,44.5598893 84.4152249,44.5598893 C80.3251592,44.5598893 77.0103806,41.2353225 77.0103806,37.1331792 C77.0103806,33.0310358 80.3251592,29.7064691 84.4152249,29.7064691 C88.5052907,29.7064691 91.8200692,33.0310358 91.8200692,37.1331792 L91.8200692,37.1331792 Z" id="Stroke-258" stroke="#4D6892" stroke-width="1.11000001" stroke-linecap="round" stroke-linejoin="round"></path>
                <path d="M84.4152249,29.7064691 L84.4152249,23.765101" id="Stroke-259" stroke="#4D6892" stroke-width="1.11000001" stroke-linecap="round" stroke-linejoin="round"></path>
                <path d="M90.133764,31.397828 L93.8247087,27.6959844" id="Stroke-260" stroke="#4D6892" stroke-width="1.11000001" stroke-linecap="round" stroke-linejoin="round"></path>
                <path d="M89.6514125,42.3848287 L93.8395924,46.5857472" id="Stroke-261" stroke="#4D6892" stroke-width="1.11000001" stroke-linecap="round" stroke-linejoin="round"></path>
                <path d="M139.211073,20.7947883 L139.211073,32.6775244 C139.211073,34.3180847 140.53728,35.6482085 142.17301,35.6482085 C143.80874,35.6482085 145.134948,34.3180847 145.134948,32.6775244 L145.134948,20.7947883" id="Fill-262" fill="#4BA2F2"></path>
                <path d="M139.211073,20.7947883 L145.134948,20.7947883" id="Stroke-263" stroke="#4D6892" stroke-width="1.11000001" stroke-linecap="round" stroke-linejoin="round"></path>
                <path d="M139.211073,20.7947883 L139.211073,14.8534202 L145.134948,14.8534202 L145.134948,20.7947883" id="Stroke-264" stroke="#4D6892" stroke-width="1.11000001" stroke-linecap="round" stroke-linejoin="round"></path>
                <path d="M139.211073,20.7947883 L139.211073,32.6775244 C139.211073,34.3180847 140.53728,35.6482085 142.17301,35.6482085 C143.80874,35.6482085 145.134948,34.3180847 145.134948,32.6775244 L145.134948,20.7947883" id="Stroke-265" stroke="#4D6892" stroke-width="1.11000001" stroke-linecap="round" stroke-linejoin="round"></path>
                <path d="M137.730104,14.8534202 L146.615917,14.8534202" id="Stroke-266" stroke="#4D6892" stroke-width="1.11000001" stroke-linecap="round" stroke-linejoin="round"></path>
                <path d="M139.211073,17.8241042 L140.692042,17.8241042" id="Stroke-267" stroke="#4D6892" stroke-width="1.11000001" stroke-linecap="round" stroke-linejoin="round"></path>
                <path d="M139.211073,23.7654723 L140.692042,23.7654723" id="Stroke-268" stroke="#4D6892" stroke-width="1.11000001" stroke-linecap="round" stroke-linejoin="round"></path>
                <path d="M139.211073,26.7361564 L140.692042,26.7361564" id="Stroke-269" stroke="#4D6892" stroke-width="1.11000001" stroke-linecap="round" stroke-linejoin="round"></path>
                <path d="M139.211073,29.7068404 L140.692042,29.7068404" id="Stroke-270" stroke="#4D6892" stroke-width="1.11000001" stroke-linecap="round" stroke-linejoin="round"></path>
                <path d="M151.058824,20.7947883 L151.058824,32.6775244 C151.058824,34.3180847 152.385031,35.6482085 154.020761,35.6482085 C155.656491,35.6482085 156.982699,34.3180847 156.982699,32.6775244 L156.982699,20.7947883" id="Fill-271" fill="#4BA2F2"></path>
                <path d="M151.058824,20.7947883 L156.982699,20.7947883" id="Stroke-272" stroke="#4D6892" stroke-width="1.11000001" stroke-linecap="round" stroke-linejoin="round"></path>
                <path d="M151.058824,20.7947883 L151.058824,32.6775244 C151.058824,34.3180847 152.385031,35.6482085 154.020761,35.6482085 C155.656491,35.6482085 156.982699,34.3180847 156.982699,32.6775244 L156.982699,20.7947883" id="Stroke-273" stroke="#4D6892" stroke-width="1.11000001" stroke-linecap="round" stroke-linejoin="round"></path>
                <path d="M151.058824,20.7947883 L151.058824,14.8534202 L156.982699,14.8534202 L156.982699,20.7947883" id="Stroke-274" stroke="#4D6892" stroke-width="1.11000001" stroke-linecap="round" stroke-linejoin="round"></path>
                <path d="M149.577855,14.8534202 L158.463668,14.8534202" id="Stroke-275" stroke="#4D6892" stroke-width="1.11000001" stroke-linecap="round" stroke-linejoin="round"></path>
                <path d="M151.058824,17.8241042 L152.539792,17.8241042" id="Stroke-276" stroke="#4D6892" stroke-width="1.11000001" stroke-linecap="round" stroke-linejoin="round"></path>
                <path d="M151.058824,23.7654723 L152.539792,23.7654723" id="Stroke-277" stroke="#4D6892" stroke-width="1.11000001" stroke-linecap="round" stroke-linejoin="round"></path>
                <path d="M151.058824,26.7361564 L152.539792,26.7361564" id="Stroke-278" stroke="#4D6892" stroke-width="1.11000001" stroke-linecap="round" stroke-linejoin="round"></path>
                <path d="M151.058824,29.7068404 L152.539792,29.7068404" id="Stroke-279" stroke="#4D6892" stroke-width="1.11000001" stroke-linecap="round" stroke-linejoin="round"></path>
                <path d="M162.906574,38.6188925 L162.906574,20.7947883 L133.287197,20.7947883 L133.287197,38.6188925" id="Stroke-280" stroke="#4D6892" stroke-width="1.11000001" stroke-linecap="round" stroke-linejoin="round"></path>
                <path d="M192.525952,109.915309 L201.411765,109.915309 L201.411765,86.5211726 L192.525952,86.5211726 L192.525952,109.915309 Z" id="Fill-281" fill="#FBB326"></path>
                <path d="M195.487889,86.1498371 L198.449827,86.1498371 L198.449827,65.3550489 L195.487889,65.3550489 L195.487889,86.1498371 Z" id="Fill-282" fill="#B5B5B5"></path>
                <path d="M198.449827,59.4133094 L195.487889,59.4133094 L194.747405,65.3550489 L199.190311,65.3550489 L198.449827,59.4133094 Z" id="Fill-283" fill="#B5B5B5"></path>
                <path d="M192.525952,109.915309 L201.411765,109.915309 L201.411765,86.5211726 L192.525952,86.5211726 L192.525952,109.915309 Z" id="Stroke-284" stroke="#4D6892" stroke-width="1.11000001" stroke-linecap="round" stroke-linejoin="round"></path>
                <path d="M195.487889,86.1498371 L198.449827,86.1498371 L198.449827,65.3550489 L195.487889,65.3550489 L195.487889,86.1498371 Z" id="Stroke-285" stroke="#4D6892" stroke-width="1.11000001" stroke-linecap="round" stroke-linejoin="round"></path>
                <path d="M198.449827,59.4133094 L195.487889,59.4133094 L194.747405,65.3550489 L199.190311,65.3550489 L198.449827,59.4133094 L198.449827,59.4133094 Z" id="Stroke-286" stroke="#4D6892" stroke-width="1.11000001" stroke-linecap="round" stroke-linejoin="round"></path>
                <path d="M192.525952,92.0912052 L201.411765,92.0912052" id="Stroke-287" stroke="#4D6892" stroke-width="1.11000001" stroke-linecap="round" stroke-linejoin="round"></path>
                <path d="M195.487889,92.0912052 L195.487889,109.292951" id="Stroke-288" stroke="#4D6892" stroke-width="1.11000001" stroke-linecap="round" stroke-linejoin="round"></path>
                <path d="M198.449827,92.0912052 L198.449827,109.915309" id="Stroke-289" stroke="#4D6892" stroke-width="1.11000001" stroke-linecap="round" stroke-linejoin="round"></path>
                <path d="M100.705882,109.915309 L168.83045,109.915309 L168.83045,59.4136808 L100.705882,59.4136808 L100.705882,109.915309 Z" id="Fill-290" fill="#EEF1F6"></path>
                <path d="M171.792388,106.944625 C171.792388,108.578502 170.459516,109.915309 168.83045,109.915309 C167.201384,109.915309 165.868512,108.578502 165.868512,106.944625 L165.868512,56.4429967 C165.868512,54.8091205 167.201384,53.4723127 168.83045,53.4723127 C170.459516,53.4723127 171.792388,54.8091205 171.792388,56.4429967 L171.792388,106.944625 Z" id="Fill-291" fill="#EEF1F6"></path>
                <path d="M165.868512,103.973941 L168.83045,103.973941 L168.83045,53.4723127 L165.868512,53.4723127 L165.868512,103.973941 Z" id="Fill-292" fill="#CFD7E6"></path>
                <path d="M168.83045,106.944625 L103.66782,106.944625" id="Stroke-293" stroke="#4D6892" stroke-width="1.11000001" stroke-linecap="round" stroke-linejoin="round"></path>
                <path d="M171.792388,103.973941 C171.792388,105.615987 170.467661,106.944625 168.83045,106.944625" id="Stroke-294" stroke="#4D6892" stroke-width="1.11000001" stroke-linecap="round" stroke-linejoin="round"></path>
                <path d="M103.66782,62.3843648 L165.868512,62.3843648" id="Stroke-295" stroke="#4D6892" stroke-width="1.11000001" stroke-linecap="round" stroke-linejoin="round"></path>
                <path d="M103.66782,62.3843648 L103.66782,106.944625" id="Stroke-296" stroke="#4D6892" stroke-width="1.11000001" stroke-linecap="round" stroke-linejoin="round"></path>
                <path d="M106.629758,68.3257329 L109.591696,68.3257329 L109.591696,65.3550489 L106.629758,65.3550489 L106.629758,68.3257329 Z" id="Stroke-297" stroke="#4D6892" stroke-width="1.11000001" stroke-linecap="round" stroke-linejoin="round"></path>
                <path d="M112.553633,65.3550489 L118.477509,65.3550489" id="Stroke-298" stroke="#4D6892" stroke-width="1.11000001" stroke-linecap="round" stroke-linejoin="round"></path>
                <path d="M112.553633,68.3257329 L115.515571,68.3257329" id="Stroke-299" stroke="#4D6892" stroke-width="1.11000001" stroke-linecap="round" stroke-linejoin="round"></path>
                <path d="M151.058824,85.7251779 L151.058824,83.6037381 L146.631467,82.6520052 C146.535945,82.1551583 146.401917,81.6742788 146.239381,81.2034254 L149.603401,78.1569889 L148.545619,76.3185068 L144.230817,77.7169564 C143.903893,77.3396795 143.551422,76.9872821 143.175256,76.6593928 L144.570699,72.3318489 L142.73726,71.270572 L139.699792,74.6434124 C139.230325,74.4818814 138.751232,74.3470866 138.255478,74.2516534 L137.306547,69.8112235 L135.191723,69.8112235 L134.242792,74.2516534 C133.747038,74.3470866 133.267945,74.4818814 132.798478,74.6434124 L129.76101,71.270572 L127.927571,72.3314775 L129.323014,76.6593928 C128.946848,76.9872821 128.594377,77.3396795 128.267453,77.7169564 L123.952651,76.3185068 L122.894498,78.1569889 L126.257408,81.2045394 C126.096353,81.6742788 125.962325,82.1551583 125.866803,82.6520052 L121.439446,83.6033668 L121.439446,85.7251779 L125.866803,86.6769107 C125.962325,87.1737577 126.096353,87.6542658 126.257408,88.1240052 L122.894498,91.171927 L123.952651,93.0104091 L128.267453,91.6112169 C128.594377,91.9881225 128.945367,92.3416339 129.321533,92.6695231 L127.927201,96.9978098 L129.76101,98.058344 L132.798478,94.6843896 C133.266464,94.8470345 133.747038,94.9818293 134.242792,95.0776339 L135.191723,99.5180638 L137.306547,99.5180638 L138.255478,95.0776339 C138.751232,94.9818293 139.231806,94.8470345 139.699792,94.6843896 L142.73726,98.058344 L144.570699,96.9974384 L143.175256,92.6695231 C143.552903,92.3416339 143.905374,91.9881225 144.231187,91.6112169 L148.545619,93.0089238 L149.603401,91.171927 L146.239381,88.1254906 C146.401917,87.6557511 146.535945,87.1737577 146.631467,86.6769107 L151.058824,85.7251779 L151.058824,85.7251779 Z" id="Stroke-300" stroke="#4D6892" stroke-width="1.11000001" stroke-linecap="round" stroke-linejoin="round" fill="#4BA2F2"></path>
                <path d="M140.480855,84.6644951 C140.480855,87.0087362 138.586696,88.9088599 136.248987,88.9088599 C133.911648,88.9088599 132.017489,87.0087362 132.017489,84.6644951 C132.017489,82.3198827 133.911648,80.419759 136.248987,80.419759 C138.586696,80.419759 140.480855,82.3198827 140.480855,84.6644951 L140.480855,84.6644951 Z" id="Stroke-301" stroke="#4D6892" stroke-width="1.11000001" stroke-linecap="round" stroke-linejoin="round" fill="#FFC857"></path>
                <path d="M118.477509,84.6644951 L106.629758,84.6644951" id="Stroke-302" stroke="#4D6892" stroke-width="1.11000001" stroke-linecap="round" stroke-linejoin="round"></path>
                <path d="M106.629758,87.6351792 L112.553633,87.6351792" id="Stroke-303" stroke="#4D6892" stroke-width="1.11000001" stroke-linecap="round" stroke-linejoin="round"></path>
                <path d="M106.629758,95.0618893 L115.515571,95.0618893" id="Stroke-304" stroke="#4D6892" stroke-width="1.11000001" stroke-linecap="round" stroke-linejoin="round"></path>
                <path d="M115.515571,95.0618893 L118.477509,92.0912052" id="Stroke-305" stroke="#4D6892" stroke-width="1.11000001" stroke-linecap="round" stroke-linejoin="round"></path>
                <path d="M118.477509,77.237785 L115.515571,74.267101" id="Stroke-306" stroke="#4D6892" stroke-width="1.11000001" stroke-linecap="round" stroke-linejoin="round"></path>
                <path d="M115.515571,74.267101 L106.629758,74.267101" id="Stroke-307" stroke="#4D6892" stroke-width="1.11000001" stroke-linecap="round" stroke-linejoin="round"></path>
                <path d="M106.629758,77.237785 L109.591696,77.237785" id="Stroke-308" stroke="#4D6892" stroke-width="1.11000001" stroke-linecap="round" stroke-linejoin="round"></path>
                <path d="M154.020761,84.6644951 L165.868512,84.6644951" id="Stroke-309" stroke="#4D6892" stroke-width="1.11000001" stroke-linecap="round" stroke-linejoin="round"></path>
                <path d="M165.868512,87.6351792 L162.906574,87.6351792" id="Stroke-310" stroke="#4D6892" stroke-width="1.11000001" stroke-linecap="round" stroke-linejoin="round"></path>
                <path d="M165.868512,95.0618893 L156.982699,95.0618893" id="Stroke-311" stroke="#4D6892" stroke-width="1.11000001" stroke-linecap="round" stroke-linejoin="round"></path>
                <path d="M156.982699,95.0618893 L154.020761,92.0912052" id="Stroke-312" stroke="#4D6892" stroke-width="1.11000001" stroke-linecap="round" stroke-linejoin="round"></path>
                <path d="M154.020761,77.237785 L156.982699,74.267101" id="Stroke-313" stroke="#4D6892" stroke-width="1.11000001" stroke-linecap="round" stroke-linejoin="round"></path>
                <path d="M156.982699,74.267101 L165.868512,74.267101" id="Stroke-314" stroke="#4D6892" stroke-width="1.11000001" stroke-linecap="round" stroke-linejoin="round"></path>
                <path d="M162.906574,98.0325733 L165.868512,98.0325733" id="Stroke-315" stroke="#4D6892" stroke-width="1.11000001" stroke-linecap="round" stroke-linejoin="round"></path>
                <path d="M159.944637,77.237785 L165.868512,77.237785" id="Stroke-316" stroke="#4D6892" stroke-width="1.11000001" stroke-linecap="round" stroke-linejoin="round"></path>
                <path d="M106.629758,98.0325733 L109.591696,98.0325733" id="Stroke-317" stroke="#4D6892" stroke-width="1.11000001" stroke-linecap="round" stroke-linejoin="round"></path>
                <path d="M171.792388,106.944625 C171.792388,108.586671 170.467661,109.915309 168.83045,109.915309" id="Stroke-318" stroke="#4D6892" stroke-width="1.11000001" stroke-linecap="round" stroke-linejoin="round"></path>
                <path d="M171.792388,106.944625 C171.792388,105.30258 170.467661,103.973941 168.83045,103.973941" id="Stroke-319" stroke="#4D6892" stroke-width="1.11000001" stroke-linecap="round" stroke-linejoin="round"></path>
                <path d="M171.792388,106.944625 L171.792388,56.4429967" id="Stroke-320" stroke="#4D6892" stroke-width="1.11000001" stroke-linecap="round" stroke-linejoin="round"></path>
                <path d="M171.792388,56.4429967 C171.792388,54.8009511 170.467661,53.4723127 168.83045,53.4723127" id="Stroke-321" stroke="#4D6892" stroke-width="1.11000001" stroke-linecap="round" stroke-linejoin="round"></path>
                <path d="M100.705882,109.915309 L168.83045,109.915309" id="Stroke-322" stroke="#4D6892" stroke-width="1.11000001" stroke-linecap="round" stroke-linejoin="round"></path>
                <path d="M100.705882,59.4136808 L165.868512,59.4136808" id="Stroke-323" stroke="#4D6892" stroke-width="1.11000001" stroke-linecap="round" stroke-linejoin="round"></path>
                <path d="M100.705882,59.4136808 L100.705882,109.915309" id="Stroke-324" stroke="#4D6892" stroke-width="1.11000001" stroke-linecap="round" stroke-linejoin="round"></path>
                <path d="M165.868512,103.973941 L168.83045,103.973941" id="Stroke-325" stroke="#4D6892" stroke-width="1.11000001" stroke-linecap="round" stroke-linejoin="round"></path>
                <path d="M165.868512,53.4723127 L168.83045,53.4723127" id="Stroke-326" stroke="#4D6892" stroke-width="1.11000001" stroke-linecap="round" stroke-linejoin="round"></path>
                <path d="M165.868512,53.4723127 L165.868512,103.973941" id="Stroke-327" stroke="#4D6892" stroke-width="1.11000001" stroke-linecap="round" stroke-linejoin="round"></path>
            </g>
        </g>
    </g>
</svg>