<?xml version="1.0" encoding="utf-8"?>
<!DOCTYPE svg PUBLIC "-//W3C//DTD SVG 1.1//EN" "http://www.w3.org/Graphics/SVG/1.1/DTD/svg11.dtd">
<svg version="1.1" id="Warstwa_1" xmlns="http://www.w3.org/2000/svg" xmlns:xlink="http://www.w3.org/1999/xlink" x="0px" y="0px"
	 width="139.5px" height="35.5px" viewBox="0 0 139.5 35.5" enable-background="new 0 0 139.5 35.5" xml:space="preserve">
<g>
	<path fill="#4D6892" d="M20.871,27.605c0,2.432-0.912,4.336-2.736,5.712c-1.824,1.375-4.512,2.064-8.064,2.064
		c-1.344,0-2.592-0.096-3.744-0.288c-1.152-0.192-2.136-0.488-2.952-0.888c-0.816-0.4-1.457-0.904-1.92-1.512
		c-0.464-0.607-0.696-1.328-0.696-2.16c0-0.768,0.16-1.416,0.48-1.944c0.319-0.528,0.704-0.967,1.152-1.32
		c0.928,0.512,1.992,0.968,3.192,1.368c1.2,0.401,2.583,0.6,4.152,0.6c0.992,0,1.752-0.144,2.28-0.432
		c0.528-0.288,0.792-0.672,0.792-1.152c0-0.448-0.192-0.799-0.576-1.056c-0.384-0.256-1.024-0.464-1.92-0.624l-1.44-0.288
		c-2.784-0.544-4.856-1.399-6.216-2.568c-1.36-1.167-2.04-2.839-2.04-5.016c0-1.184,0.256-2.256,0.768-3.216
		c0.512-0.96,1.231-1.759,2.16-2.4c0.928-0.64,2.04-1.135,3.336-1.488c1.296-0.352,2.728-0.528,4.296-0.528
		c1.184,0,2.296,0.089,3.336,0.264c1.04,0.176,1.944,0.44,2.712,0.792c0.768,0.353,1.375,0.809,1.824,1.368
		c0.448,0.56,0.672,1.224,0.672,1.992c0,0.737-0.136,1.368-0.408,1.896c-0.272,0.528-0.617,0.968-1.032,1.32
		c-0.256-0.16-0.641-0.328-1.152-0.504c-0.512-0.176-1.073-0.336-1.68-0.48c-0.608-0.144-1.224-0.264-1.848-0.36
		c-0.624-0.096-1.192-0.144-1.704-0.144c-1.056,0-1.872,0.12-2.448,0.36c-0.576,0.24-0.864,0.616-0.864,1.128
		c0,0.353,0.16,0.64,0.48,0.864c0.319,0.224,0.928,0.432,1.824,0.624l1.488,0.336c3.072,0.705,5.256,1.673,6.552,2.904
		C20.223,24.062,20.871,25.654,20.871,27.605z"/>
	<path fill="#4D6892" d="M32.966,26.549c0,0.833,0.264,1.424,0.792,1.776c0.528,0.353,1.272,0.528,2.232,0.528
		c0.48,0,0.976-0.04,1.488-0.12c0.512-0.08,0.96-0.184,1.344-0.312c0.288,0.353,0.535,0.744,0.744,1.176
		c0.208,0.432,0.312,0.952,0.312,1.56c0,1.217-0.456,2.208-1.368,2.976c-0.912,0.768-2.52,1.152-4.824,1.152
		c-2.816,0-4.984-0.641-6.504-1.92c-1.521-1.279-2.28-3.36-2.28-6.24V6.582c0.352-0.096,0.856-0.2,1.512-0.312
		c0.655-0.112,1.352-0.168,2.088-0.168c1.408,0,2.503,0.248,3.288,0.744c0.784,0.497,1.176,1.544,1.176,3.144v3.072h6.288
		c0.192,0.353,0.376,0.792,0.552,1.32c0.175,0.528,0.264,1.112,0.264,1.752c0,1.121-0.248,1.928-0.744,2.424
		c-0.497,0.496-1.16,0.744-1.992,0.744h-4.368V26.549z"/>
	<path fill="#4D6892" d="M52.166,34.518c-0.32,0.096-0.824,0.192-1.512,0.288c-0.688,0.096-1.4,0.144-2.136,0.144
		c-0.704,0-1.336-0.048-1.896-0.144c-0.56-0.096-1.032-0.288-1.416-0.576c-0.384-0.288-0.68-0.68-0.888-1.176
		c-0.208-0.496-0.312-1.144-0.312-1.944v-14.4c0-0.736,0.136-1.368,0.408-1.896c0.271-0.528,0.664-1,1.176-1.416
		c0.511-0.416,1.144-0.792,1.896-1.128c0.751-0.336,1.56-0.632,2.424-0.888c0.864-0.256,1.76-0.456,2.688-0.6
		c0.928-0.144,1.855-0.216,2.784-0.216c1.536,0,2.751,0.296,3.648,0.888c0.896,0.592,1.344,1.56,1.344,2.904
		c0,0.449-0.064,0.888-0.192,1.32c-0.128,0.432-0.288,0.824-0.48,1.176c-0.672,0-1.36,0.032-2.064,0.096
		c-0.704,0.065-1.392,0.161-2.064,0.288c-0.672,0.128-1.304,0.264-1.896,0.408c-0.592,0.144-1.097,0.312-1.512,0.504V34.518z"/>
	<path fill="#4D6892" d="M63.542,4.757c0-1.216,0.408-2.239,1.224-3.072c0.816-0.832,1.896-1.248,3.24-1.248
		c1.344,0,2.424,0.416,3.24,1.248c0.816,0.833,1.224,1.856,1.224,3.072c0,1.217-0.408,2.24-1.224,3.072
		c-0.816,0.833-1.896,1.248-3.24,1.248c-1.344,0-2.424-0.416-3.24-1.248C63.95,6.998,63.542,5.974,63.542,4.757z M72.086,34.518
		c-0.353,0.063-0.873,0.151-1.56,0.264c-0.688,0.112-1.385,0.168-2.088,0.168c-0.705,0-1.337-0.048-1.896-0.144
		c-0.561-0.096-1.032-0.288-1.416-0.576c-0.384-0.288-0.681-0.68-0.888-1.176c-0.208-0.496-0.312-1.144-0.312-1.944V11.573
		c0.352-0.063,0.872-0.151,1.56-0.264c0.688-0.112,1.384-0.168,2.088-0.168c0.704,0,1.336,0.048,1.896,0.144
		c0.56,0.096,1.032,0.288,1.416,0.576c0.384,0.288,0.68,0.68,0.888,1.176c0.208,0.496,0.312,1.145,0.312,1.944V34.518z"/>
	<path fill="#4D6892" d="M88.454,10.518c1.312,0,2.599,0.185,3.864,0.552c1.264,0.368,2.359,0.92,3.288,1.656
		c0.96-0.64,2.04-1.168,3.24-1.584c1.2-0.416,2.648-0.624,4.344-0.624c1.216,0,2.408,0.16,3.576,0.48
		c1.167,0.32,2.208,0.824,3.12,1.512c0.912,0.688,1.64,1.601,2.184,2.736c0.544,1.136,0.816,2.52,0.816,4.152v15.12
		c-0.32,0.096-0.824,0.192-1.512,0.288c-0.688,0.096-1.4,0.144-2.136,0.144c-0.704,0-1.336-0.048-1.896-0.144
		c-0.56-0.096-1.032-0.288-1.416-0.576c-0.384-0.288-0.68-0.68-0.888-1.176c-0.208-0.496-0.312-1.144-0.312-1.944V19.637
		c0-0.96-0.272-1.656-0.816-2.088c-0.545-0.432-1.28-0.648-2.208-0.648c-0.449,0-0.929,0.104-1.44,0.312
		c-0.512,0.208-0.896,0.424-1.152,0.648c0.032,0.128,0.048,0.249,0.048,0.36c0,0.113,0,0.216,0,0.312v15.984
		c-0.352,0.096-0.872,0.192-1.56,0.288c-0.688,0.096-1.385,0.144-2.088,0.144c-0.704,0-1.336-0.048-1.896-0.144
		c-0.56-0.096-1.032-0.288-1.416-0.576c-0.384-0.288-0.68-0.68-0.888-1.176c-0.208-0.496-0.312-1.144-0.312-1.944V19.637
		c0-0.96-0.296-1.656-0.888-2.088c-0.592-0.432-1.304-0.648-2.136-0.648c-0.576,0-1.073,0.088-1.488,0.264
		c-0.416,0.176-0.768,0.344-1.056,0.504v16.848c-0.32,0.096-0.824,0.192-1.512,0.288c-0.688,0.096-1.4,0.144-2.136,0.144
		c-0.704,0-1.336-0.048-1.896-0.144c-0.56-0.096-1.032-0.288-1.416-0.576c-0.384-0.288-0.68-0.68-0.888-1.176
		c-0.208-0.496-0.312-1.144-0.312-1.944V16.613c0-0.864,0.184-1.552,0.552-2.064c0.368-0.511,0.872-0.991,1.512-1.44
		c1.087-0.768,2.439-1.392,4.056-1.872C85.005,10.757,86.694,10.518,88.454,10.518z"/>
	<path fill="#4D6892" d="M117.686,4.757c0-1.216,0.408-2.239,1.224-3.072c0.816-0.832,1.896-1.248,3.24-1.248
		c1.344,0,2.424,0.416,3.24,1.248c0.816,0.833,1.224,1.856,1.224,3.072c0,1.217-0.408,2.24-1.224,3.072
		c-0.816,0.833-1.896,1.248-3.24,1.248c-1.344,0-2.424-0.416-3.24-1.248C118.093,6.998,117.686,5.974,117.686,4.757z
		 M126.229,34.518c-0.353,0.063-0.873,0.151-1.56,0.264c-0.688,0.112-1.385,0.168-2.088,0.168c-0.705,0-1.337-0.048-1.896-0.144
		c-0.561-0.096-1.032-0.288-1.416-0.576c-0.384-0.288-0.681-0.68-0.888-1.176c-0.208-0.496-0.312-1.144-0.312-1.944V11.573
		c0.352-0.063,0.872-0.151,1.56-0.264c0.688-0.112,1.384-0.168,2.088-0.168c0.704,0,1.336,0.048,1.896,0.144
		c0.56,0.096,1.032,0.288,1.416,0.576c0.384,0.288,0.68,0.68,0.888,1.176c0.208,0.496,0.312,1.145,0.312,1.944V34.518z"/>
	<path fill="#FFC858" d="M129.974,30.677c0-1.344,0.416-2.463,1.248-3.36c0.832-0.896,1.968-1.344,3.408-1.344
		s2.576,0.448,3.408,1.344c0.832,0.896,1.248,2.016,1.248,3.36c0,1.344-0.417,2.465-1.248,3.36
		c-0.833,0.896-1.968,1.344-3.408,1.344s-2.576-0.448-3.408-1.344C130.389,33.142,129.974,32.021,129.974,30.677z"/>
</g>
<g>
</g>
<g>
</g>
<g>
</g>
<g>
</g>
<g>
</g>
<g>
</g>
</svg>
