<?xml version="1.0" encoding="UTF-8" standalone="no"?>
<svg width="96px" height="96px" viewBox="0 0 96 96" version="1.1" xmlns="http://www.w3.org/2000/svg" xmlns:xlink="http://www.w3.org/1999/xlink">
    <!-- Generator: Sketch 3.7.2 (28276) - http://www.bohemiancoding.com/sketch -->
    <title>ico-who-2</title>
    <desc>Created with Sketch.</desc>
    <defs></defs>
    <g id="ico-frontpage" stroke="none" stroke-width="1" fill="none" fill-rule="evenodd">
        <g id="ico-who-2">
            <g id="Page-1-Copy" transform="translate(16.000000, 16.000000)">
                <path d="M64,32 C64,49.673 49.673,64 32,64 C14.327,64 0,49.673 0,32 C0,14.327 14.327,0 32,0 C49.673,0 64,14.327 64,32" id="Fill-2" fill="#CFD7E6"></path>
                <path d="M32,64 L32,36" id="Stroke-3" stroke="#4D6892" stroke-width="2" stroke-linejoin="round"></path>
                <path d="M18,53 C18,54.656 19.344,56 21,56 L28,56 L28,53 C28,51.344 26.656,50 25,50 L18,50 L18,53 Z" id="Fill-4" fill="#FFC857"></path>
                <path d="M46,48 C46,49.656 44.656,51 43,51 L36,51 L36,48 C36,46.344 37.344,45 39,45 L46,45 L46,48 Z" id="Fill-5" fill="#FFC857"></path>
                <path d="M46,48 C46,49.656 44.656,51 43,51 L36,51 L36,48 C36,46.344 37.344,45 39,45 L46,45 L46,48 L46,48 Z" id="Stroke-6" stroke="#4D6892" stroke-width="2"></path>
                <path d="M18,53 C18,54.656 19.344,56 21,56 L28,56 L28,53 C28,51.344 26.656,50 25,50 L18,50 L18,53 L18,53 Z" id="Stroke-7" stroke="#4D6892" stroke-width="2"></path>
                <polyline id="Fill-8" fill="#4BA2F2" points="56 4 56 41 36 41 32 37 28 41 8 41 8 4"></polyline>
                <polygon id="Fill-9" fill="#FFFFFF" points="12 37 52 37 52 1 12 1"></polygon>
                <polygon id="Stroke-10" stroke="#4D6892" stroke-width="2" stroke-linejoin="round" points="12 37 52 37 52 1 12 1"></polygon>
                <path d="M32,6 L32,32" id="Stroke-11" stroke="#4D6892" stroke-width="2" stroke-linejoin="round"></path>
                <polygon id="Fill-12" fill="#FFC469" points="15 14 29 14 29 8 15 8"></polygon>
                <path d="M15,17 L29,17" id="Stroke-13" stroke="#4D6892" stroke-width="2" stroke-linejoin="round"></path>
                <path d="M15,21 L29,21" id="Stroke-14" stroke="#4D6892" stroke-width="2" stroke-linejoin="round"></path>
                <path d="M15,25 L29,25" id="Stroke-15" stroke="#4D6892" stroke-width="2" stroke-linejoin="round"></path>
                <path d="M15,29 L29,29" id="Stroke-16" stroke="#4D6892" stroke-width="2" stroke-linejoin="round"></path>
                <path d="M35,21 L49,21" id="Stroke-17" stroke="#4D6892" stroke-width="2" stroke-linejoin="round"></path>
                <path d="M35,25 L49,25" id="Stroke-18" stroke="#4D6892" stroke-width="2" stroke-linejoin="round"></path>
                <path d="M35,29 L49,29" id="Stroke-19" stroke="#4D6892" stroke-width="2" stroke-linejoin="round"></path>
                <path d="M35,9 L49,9" id="Stroke-20" stroke="#4D6892" stroke-width="2" stroke-linejoin="round"></path>
                <polygon id="Fill-21" fill="#CFD7E6" points="35 18 49 18 49 12 35 12"></polygon>
                <path d="M41,15 L43,15" id="Stroke-22" stroke="#4D6892" stroke-width="2" stroke-linejoin="round"></path>
                <path d="M37,15 L39,15" id="Stroke-23" stroke="#4D6892" stroke-width="2" stroke-linejoin="round"></path>
                <path d="M45,15 L47,15" id="Stroke-24" stroke="#4D6892" stroke-width="2" stroke-linejoin="round"></path>
                <polyline id="Stroke-25" stroke="#4D6892" stroke-width="2" stroke-linejoin="round" points="56 4 56 41 36 41 32 37 28 41 8 41 8 4"></polyline>
            </g>
        </g>
    </g>
</svg>