<?xml version="1.0" encoding="UTF-8" standalone="no"?>
<svg width="96px" height="96px" viewBox="0 0 96 96" version="1.1" xmlns="http://www.w3.org/2000/svg" xmlns:xlink="http://www.w3.org/1999/xlink">
    <!-- Generator: Sketch 3.7.2 (28276) - http://www.bohemiancoding.com/sketch -->
    <title>ico-who-3</title>
    <desc>Created with Sketch.</desc>
    <defs></defs>
    <g id="ico-frontpage" stroke="none" stroke-width="1" fill="none" fill-rule="evenodd">
        <g id="ico-who-3">
            <g id="Group-64" transform="translate(17.000000, 17.000000)">
                <path d="M49,44 L49,17 C49,12.029 44.971,8 40,8 L22,8 C17.029,8 13,12.029 13,17 L13,44 L49,44 L49,44 Z" id="Fill-34" fill="#FFC857"></path>
                <path d="M39,29 C46,33 54,32 54,42 L54,44 L8,44 L8,42 C8,32 16,33 23,29 L39,29 Z" id="Fill-36" fill="#A7B8D1"></path>
                <polygon id="Fill-38" fill="#FFFFFF" points="35 33 31 31 27 33 23 29 25 26 26 26 26 22 31 23 36 22 36 26 37 26 39 29"></polygon>
                <polygon id="Stroke-40" stroke="#4D6892" stroke-width="2" points="35 33 31 31 27 33 23 29 25 26 31 27 37 26 39 29"></polygon>
                <path d="M36,22 L36,26" id="Stroke-42" stroke="#4D6892" stroke-width="2"></path>
                <path d="M26,26 L26,22" id="Stroke-44" stroke="#4D6892" stroke-width="2"></path>
                <path d="M40,9 L40,13 C39,20 36,22 36,22 C34,23 31,23 31,23 C31,23 28,23 26,22 C26,22 23,20 22,13 L22,9 L26,7 L36,11 L40,9 Z" id="Fill-46" fill="#FFFFFF"></path>
                <path d="M22,9 C22,2.925 24.925,0 31,0 C37.075,0 40,2.925 40,9 L36,11 L31,9 L26,7 L22,9 Z" id="Fill-48" fill="#FFC469"></path>
                <path d="M40,9 L40,13 C39,20 36,22 36,22 C34,23 31,23 31,23 C31,23 28,23 26,22 C26,22 23,20 22,13 L22,9" id="Stroke-50" stroke="#4D6892" stroke-width="2"></path>
                <path d="M22,9 C22,2.925 24.925,0 31,0 C37.075,0 40,2.925 40,9" id="Stroke-52" stroke="#4D6892" stroke-width="2"></path>
                <polyline id="Stroke-54" stroke="#4D6892" stroke-width="2" points="22 9 26 7 31 9 36 11 40 9"></polyline>
                <polygon id="Fill-56" fill="#FFFFFF" points="0 62 62 62 62 44 0 44"></polygon>
                <polyline id="Stroke-58" stroke="#4D6892" stroke-width="2" points="10 62 0 62 0 44 62 44 62 62 52 62"></polyline>
                <path d="M48,39 L48,62 L14,62 L14,39 C14,37.344 15.344,36 17,36 L45,36 C46.656,36 48,37.344 48,39" id="Fill-59" fill="#FFFFFF"></path>
                <path d="M48,39 L48,62 L14,62 L14,39 C14,37.344 15.344,36 17,36 L45,36 C46.656,36 48,37.344 48,39 L48,39 Z" id="Stroke-60" stroke="#4D6892" stroke-width="2" stroke-linejoin="round"></path>
                <polyline id="Stroke-61" stroke="#4D6892" stroke-width="2" stroke-linejoin="round" points="48 62 51 56 51 48 48 48"></polyline>
                <polyline id="Stroke-62" stroke="#4D6892" stroke-width="2" stroke-linejoin="round" points="14 62 11 56 11 48 14 48"></polyline>
                <path d="M34,49 C34,50.656 32.656,52 31,52 C29.344,52 28,50.656 28,49 C28,47.344 29.344,46 31,46 C32.656,46 34,47.344 34,49" id="Fill-63" fill="#4BA2F2"></path>
            </g>
        </g>
    </g>
</svg>