<?xml version="1.0" encoding="UTF-8" standalone="no"?>
<svg width="96px" height="96px" viewBox="0 0 96 96" version="1.1" xmlns="http://www.w3.org/2000/svg" xmlns:xlink="http://www.w3.org/1999/xlink">
    <!-- Generator: Sketch 3.7.2 (28276) - http://www.bohemiancoding.com/sketch -->
    <title>ico-who-4</title>
    <desc>Created with Sketch.</desc>
    <defs></defs>
    <g id="ico-frontpage" stroke="none" stroke-width="1" fill="none" fill-rule="evenodd">
        <g id="ico-who-4">
            <g id="Page-1" transform="translate(20.000000, 19.000000)">
                <path d="M9.7285,51.2715 C14.1835,54.8525 19.8395,57.0005 26.0005,57.0005 C27.3605,57.0005 28.6965,56.8945 30.0005,56.6935 L30.0005,31.0005 L9.7285,51.2715 Z" id="Fill-2" fill="#EEF1F6"></path>
                <path d="M52,31 L30,31 L30,56.693 C42.46,54.77 52,43.999 52,31" id="Fill-3" fill="#A7B8D1"></path>
                <path d="M0,31 C0,37.16 2.147,42.816 5.728,47.271 L26,27 L0.307,27 C0.105,28.304 0,29.64 0,31" id="Fill-4" fill="#F4D89F"></path>
                <path d="M0.3066,27 L25.9996,27 L25.9996,5 C13.0006,5 2.2306,14.54 0.3066,27" id="Fill-5" fill="#FBB326"></path>
                <path d="M49.3848,7.6152 C44.6798,2.9102 38.1798,0.0002 30.9998,0.0002 L30.9998,26.0002 L56.9998,26.0002 C56.9998,18.8202 54.0898,12.3202 49.3848,7.6152" id="Fill-6" fill="#FFFFFF"></path>
                <path d="M31,0 L31,26 L57,26 C57,11.641 45.359,0 31,0 L31,0 Z" id="Stroke-7" stroke="#4D6892" stroke-width="2"></path>
                <path d="M52,31 L30,31 L9.728,51.271 C14.184,54.852 19.84,57 26,57 C40.359,57 52,45.359 52,31 L52,31 Z" id="Stroke-8" stroke="#4D6892" stroke-width="2"></path>
                <path d="M0,31 C0,37.16 2.147,42.816 5.728,47.271 L26,27 L26,5 C11.641,5 0,16.641 0,31 L0,31 Z" id="Stroke-9" stroke="#4D6892" stroke-width="2"></path>
                <path d="M36,22 L34,22" id="Stroke-10" stroke="#4D6892" stroke-width="2"></path>
                <path d="M40,22 L38,22" id="Stroke-11" stroke="#4D6892" stroke-width="2"></path>
                <path d="M44,22 L42,22" id="Stroke-12" stroke="#4D6892" stroke-width="2"></path>
            </g>
        </g>
    </g>
</svg>