<?xml version="1.0" encoding="UTF-8" standalone="no"?>
<svg width="96px" height="96px" viewBox="0 0 96 96" version="1.1" xmlns="http://www.w3.org/2000/svg" xmlns:xlink="http://www.w3.org/1999/xlink">
    <!-- Generator: Sketch 3.7.2 (28276) - http://www.bohemiancoding.com/sketch -->
    <title>ico-who-5</title>
    <desc>Created with Sketch.</desc>
    <defs></defs>
    <g id="ico-frontpage" stroke="none" stroke-width="1" fill="none" fill-rule="evenodd">
        <g id="ico-who-5">
            <g id="Page-1" transform="translate(17.000000, 26.000000)">
                <path d="M21.856,37 C17.99,37 14.856,33.866 14.856,30 C14.856,26.134 17.99,23 21.856,23 C25.722,23 28.856,26.134 28.856,30 C28.856,33.866 25.722,37 21.856,37 M21.856,19 C15.781,19 10.856,23.925 10.856,30 C10.856,36.075 15.781,41 21.856,41 C27.931,41 32.856,36.075 32.856,30 C32.856,23.925 27.931,19 21.856,19" id="Fill-2" fill="#FFFFFF"></path>
                <path d="M28.856,30 C28.856,33.866 25.722,37 21.856,37 C17.99,37 14.856,33.866 14.856,30 C14.856,26.134 17.99,23 21.856,23 C25.722,23 28.856,26.134 28.856,30 L28.856,30 Z" id="Stroke-3" stroke="#4D6892" stroke-width="2" stroke-linejoin="round"></path>
                <path d="M0.856,19 C0.856,17.895 1.751,17 2.856,17 C3.96,17 4.856,17.895 4.856,19 L4.856,25 C4.856,26.104 3.96,27 2.856,27 C1.751,27 0.856,26.104 0.856,25 L0.856,19 Z" id="Fill-4" fill="#FFC857"></path>
                <path d="M32.856,30 C32.856,36.075 27.931,41 21.856,41 C15.781,41 10.856,36.075 10.856,30 C10.856,23.925 15.781,19 21.856,19 C27.931,19 32.856,23.925 32.856,30 L32.856,30 Z" id="Stroke-5" stroke="#4D6892" stroke-width="2" stroke-linejoin="round"></path>
                <path d="M62.856,3 L62.856,41 C62.856,42.656 61.512,44 59.856,44 C58.2,44 56.856,42.656 56.856,41 L56.856,3 C56.856,1.344 58.2,0 59.856,0 C61.512,0 62.856,1.344 62.856,3" id="Fill-6" fill="#FBB326"></path>
                <polygon id="Fill-7" fill="#FFFFFF" points="4.856 19 4.856 25 37.856 35.154 37.856 8.846"></polygon>
                <polygon id="Fill-8" fill="#4BA2F2" points="37.856 8.8457 37.856 35.1547 56.856 40.9997 56.856 2.9997"></polygon>
                <polyline id="Stroke-9" stroke="#4D6892" stroke-width="2" stroke-linecap="round" stroke-linejoin="round" points="4.856 19 56.856 3 56.856 41 4.856 25"></polyline>
                <path d="M0.856,19 C0.856,17.895 1.751,17 2.856,17 C3.96,17 4.856,17.895 4.856,19 L4.856,25 C4.856,26.104 3.96,27 2.856,27 C1.751,27 0.856,26.104 0.856,25 L0.856,19 L0.856,19 Z" id="Stroke-10" stroke="#4D6892" stroke-width="2" stroke-linecap="round" stroke-linejoin="round"></path>
                <path d="M62.856,3 L62.856,41 C62.856,42.656 61.512,44 59.856,44 C58.2,44 56.856,42.656 56.856,41 L56.856,3 C56.856,1.344 58.2,0 59.856,0 C61.512,0 62.856,1.344 62.856,3 L62.856,3 Z" id="Stroke-11" stroke="#4D6892" stroke-width="2" stroke-linecap="round" stroke-linejoin="round"></path>
                <path d="M41.856,22 L43.856,22" id="Stroke-12" stroke="#4D6892" stroke-width="2" stroke-linejoin="round"></path>
                <path d="M45.856,22 L47.856,22" id="Stroke-13" stroke="#4D6892" stroke-width="2" stroke-linejoin="round"></path>
                <path d="M49.856,22 L51.856,22" id="Stroke-14" stroke="#4D6892" stroke-width="2" stroke-linejoin="round"></path>
            </g>
        </g>
    </g>
</svg>